<svg width="20" height="20" viewBox="0 0 20 20" fill="none" xmlns="http://www.w3.org/2000/svg">
<mask id="mask0_75_27059" style="mask-type:alpha" maskUnits="userSpaceOnUse" x="0" y="0" width="20" height="20">
<rect width="20" height="20" fill="#D9D9D9"/>
</mask>
<g mask="url(#mask0_75_27059)">
<path d="M7.95188 12.7708C6.6348 12.7708 5.50695 12.3049 4.56834 11.3733C3.62959 10.4414 3.16022 9.317 3.16022 7.99992C3.16022 7.72672 3.18056 7.46402 3.22126 7.21179C3.26181 6.95943 3.33549 6.7061 3.4423 6.45179C3.48188 6.35138 3.54202 6.267 3.62272 6.19867C3.70355 6.13033 3.79515 6.08228 3.89751 6.0545C3.99973 6.02672 4.10244 6.02881 4.20563 6.06075C4.30897 6.09284 4.40119 6.1495 4.4823 6.23075L6.74355 8.47596L8.49043 6.72909L6.27397 4.50471C6.19133 4.42193 6.13438 4.32811 6.10313 4.22325C6.07175 4.11825 6.06994 4.01603 6.09772 3.91659C6.1255 3.81728 6.17494 3.72221 6.24605 3.63138C6.31702 3.54054 6.40702 3.47533 6.51605 3.43575C6.75647 3.35145 6.99612 3.29242 7.23501 3.25867C7.47404 3.22506 7.713 3.20825 7.95188 3.20825C9.283 3.20825 10.4144 3.68103 11.3461 4.62659C12.2777 5.57228 12.7436 6.70499 12.7436 8.02471C12.7436 8.3736 12.707 8.69277 12.6338 8.98221C12.5606 9.27179 12.4577 9.55818 12.3252 9.84138L16 13.5112C16.3493 13.8591 16.524 14.2727 16.524 14.752C16.524 15.2312 16.3499 15.6369 16.0017 15.9693C15.6535 16.3017 15.2446 16.4644 14.775 16.4574C14.3054 16.4505 13.9029 16.2819 13.5673 15.9518L9.96001 12.3524C9.66612 12.4796 9.34661 12.5812 9.00147 12.657C8.65619 12.7328 8.30633 12.7708 7.95188 12.7708ZM7.95188 11.6874C8.19161 11.6874 8.52161 11.6401 8.94188 11.5455C9.36202 11.4511 9.758 11.2607 10.1298 10.9743L14.3254 15.1699C14.4546 15.2991 14.6025 15.3651 14.7692 15.3678C14.9358 15.3705 15.0908 15.3037 15.234 15.1674C15.3772 15.0312 15.4488 14.8797 15.4488 14.713C15.4488 14.5464 15.3772 14.3914 15.234 14.2483L11.0177 10.0655C11.2794 9.72152 11.4519 9.35159 11.5352 8.95575C11.6186 8.55992 11.6602 8.24825 11.6602 8.02075C11.6602 7.00159 11.2676 6.10096 10.4823 5.31888C9.69702 4.53679 8.72959 4.19436 7.58001 4.29159L9.55293 6.24346C9.68959 6.38277 9.75793 6.54527 9.75793 6.73096C9.75793 6.91666 9.68758 7.07936 9.54688 7.21909L7.21438 9.53388C7.07355 9.6736 6.91536 9.74346 6.7398 9.74346C6.56425 9.74346 6.41056 9.67513 6.27876 9.53846L4.24355 7.50304C4.12063 8.73916 4.45237 9.74561 5.23876 10.5224C6.02515 11.2991 6.92952 11.6874 7.95188 11.6874Z" fill="#303030"/>
</g>
</svg>
