<svg width="20" height="20" viewBox="0 0 20 20" fill="none" xmlns="http://www.w3.org/2000/svg">
<path d="M7.49951 13.9997C7.49951 13.7235 7.72386 13.5 8 13.5C8.27599 13.5002 8.49967 13.7236 8.49967 13.9997C8.49967 14.2207 8.58753 14.4326 8.74382 14.5889C8.9001 14.7451 9.11199 14.833 9.33301 14.833H9.99951C10.2755 14.833 10.4998 15.0567 10.5 15.3327C10.5 15.6088 10.2757 15.8332 9.99951 15.8332H9.33301C8.84678 15.8332 8.38044 15.6399 8.03662 15.2961C8.02343 15.2829 8.01193 15.2681 7.99919 15.2546C7.98659 15.2679 7.9756 15.283 7.96257 15.2961C7.61876 15.6398 7.15237 15.8332 6.66618 15.8332H5.99967C5.72353 15.8332 5.5 15.6088 5.5 15.3327C5.50018 15.0567 5.72364 14.833 5.99967 14.833H6.66618C6.88715 14.833 7.0991 14.7451 7.25537 14.5889C7.41165 14.4326 7.49951 14.2207 7.49951 13.9997Z" fill="#303030"/>
<path d="M16.1673 11.3433V8.67643C16.1672 8.45554 16.0794 8.24344 15.9232 8.08724C15.7669 7.93116 15.5548 7.8431 15.334 7.8431H10.6676C10.3915 7.8431 10.168 7.61957 10.168 7.34342C10.168 7.06728 10.3915 6.84375 10.6676 6.84375H15.334C15.8201 6.84375 16.2866 7.03643 16.6304 7.38005C16.9741 7.72379 17.1674 8.19032 17.1675 8.67643V11.3433C17.1675 11.8295 16.9742 12.2958 16.6304 12.6396C16.2866 12.9834 15.8202 13.1768 15.334 13.1768H10.6676C10.3916 13.1768 10.1681 12.9531 10.168 12.6771C10.168 12.4009 10.3915 12.1766 10.6676 12.1766H15.334C15.555 12.1766 15.7669 12.0887 15.9232 11.9325C16.0795 11.7762 16.1673 11.5643 16.1673 11.3433Z" fill="#303030"/>
<path d="M2.83398 11.3433V8.67643C2.83407 8.19032 3.02654 7.72379 3.37028 7.38005C3.71402 7.03631 4.18055 6.84384 4.66667 6.84375H5.33398C5.60998 6.84393 5.83366 7.06739 5.83366 7.34342C5.83366 7.61946 5.60998 7.84292 5.33398 7.8431H4.66667C4.44577 7.84319 4.23368 7.93104 4.07747 8.08724C3.92127 8.24344 3.83342 8.45554 3.83333 8.67643V11.3433C3.83333 11.5642 3.92135 11.7762 4.07747 11.9325C4.23368 12.0887 4.44577 12.1765 4.66667 12.1766H5.33398C5.60998 12.1768 5.83366 12.401 5.83366 12.6771C5.83348 12.953 5.60987 13.1766 5.33398 13.1768H4.66667C4.18055 13.1767 3.71402 12.9834 3.37028 12.6396C3.02662 12.2959 2.83398 11.8294 2.83398 11.3433Z" fill="#303030"/>
<path d="M7.49951 6.00456C7.49943 5.78366 7.41157 5.57157 7.25537 5.41536C7.09911 5.25924 6.88708 5.17122 6.66618 5.17122H5.99967C5.72353 5.17122 5.5 4.94769 5.5 4.67155C5.5 4.39541 5.72353 4.17188 5.99967 4.17188H6.66618C7.15229 4.17188 7.61877 4.36451 7.96257 4.70817C7.9754 4.72101 7.98677 4.73569 7.99919 4.74886C8.01175 4.73552 8.02362 4.72117 8.03662 4.70817C8.38042 4.36446 8.84685 4.17188 9.33301 4.17188H9.99951C10.2757 4.17188 10.5 4.39541 10.5 4.67155C10.5 4.94769 10.2757 5.17122 9.99951 5.17122H9.33301C9.11207 5.17122 8.90008 5.25919 8.74382 5.41536C8.58761 5.57157 8.49976 5.78366 8.49967 6.00456C8.49967 6.28059 8.27599 6.50487 8 6.50505C7.72386 6.50505 7.49951 6.2807 7.49951 6.00456Z" fill="#303030"/>
<path d="M7.5 13.9993V5.99967C7.5 5.72353 7.72353 5.5 7.99967 5.5C8.27582 5.5 8.49935 5.72353 8.49935 5.99967V13.9993C8.49935 14.2755 8.27582 14.4998 7.99967 14.4998C7.72353 14.4998 7.5 14.2755 7.5 13.9993Z" fill="#303030"/>
</svg>
