<svg width="20" height="20" viewBox="0 0 20 20" fill="none" xmlns="http://www.w3.org/2000/svg">
<mask id="mask0_75_27054" style="mask-type:alpha" maskUnits="userSpaceOnUse" x="0" y="0" width="20" height="20">
<rect width="20" height="20" fill="#D9D9D9"/>
</mask>
<g mask="url(#mask0_75_27054)">
</g>
<g clip-path="url(#clip0_75_27054)">
<path d="M4.24694 10.2505C4.46354 10.4287 4.63807 10.6525 4.75805 10.906C5.06471 11.5385 5.06471 12.3116 5.06471 13.0616C5.06471 14.6148 5.1286 15.3616 6.59805 15.3616C6.7336 15.3616 6.8636 15.4155 6.95946 15.5113C7.05531 15.6072 7.10916 15.7372 7.10916 15.8727C7.10916 16.0083 7.05531 16.1383 6.95946 16.2342C6.8636 16.33 6.7336 16.3839 6.59805 16.3839C5.48127 16.3839 4.72482 15.9916 4.34916 15.2172C4.04249 14.5847 4.04249 13.8117 4.04249 13.0616C4.04249 11.5085 3.9786 10.7616 2.50916 10.7616C2.3736 10.7616 2.2436 10.7078 2.14775 10.6119C2.0519 10.5161 1.99805 10.3861 1.99805 10.2505C1.99805 10.115 2.0519 9.98496 2.14775 9.88911C2.2436 9.79326 2.3736 9.73941 2.50916 9.73941C3.9786 9.73941 4.04249 8.99255 4.04249 7.43941C4.04249 6.69063 4.04249 5.9163 4.34916 5.2838C4.7261 4.50947 5.48255 4.11719 6.59932 4.11719C6.73488 4.11719 6.86488 4.17104 6.96073 4.26689C7.05659 4.36274 7.11044 4.49274 7.11044 4.6283C7.11044 4.76385 7.05659 4.89386 6.96073 4.98971C6.86488 5.08556 6.73488 5.13941 6.59932 5.13941C5.12988 5.13941 5.06599 5.88627 5.06599 7.43941C5.06599 8.18819 5.06599 8.96252 4.75932 9.59502C4.63898 9.84865 4.464 10.0725 4.24694 10.2505ZM17.8215 9.73941C16.3521 9.73941 16.2882 8.99255 16.2882 7.43941C16.2882 6.69063 16.2882 5.9163 15.9815 5.2838C15.6059 4.50947 14.8494 4.11719 13.7327 4.11719C13.5971 4.11719 13.4671 4.17104 13.3712 4.26689C13.2754 4.36274 13.2215 4.49274 13.2215 4.6283C13.2215 4.76385 13.2754 4.89386 13.3712 4.98971C13.4671 5.08556 13.5971 5.13941 13.7327 5.13941C15.2021 5.13941 15.266 5.88627 15.266 7.43941C15.266 8.18819 15.266 8.96252 15.5727 9.59502C15.6926 9.84852 15.8672 10.0724 16.0838 10.2505C15.8672 10.4287 15.6926 10.6525 15.5727 10.906C15.266 11.5385 15.266 12.3116 15.266 13.0616C15.266 14.6148 15.2021 15.3616 13.7327 15.3616C13.5971 15.3616 13.4671 15.4155 13.3712 15.5113C13.2754 15.6072 13.2215 15.7372 13.2215 15.8727C13.2215 16.0083 13.2754 16.1383 13.3712 16.2342C13.4671 16.33 13.5971 16.3839 13.7327 16.3839C14.8494 16.3839 15.6059 15.9916 15.9815 15.2172C16.2882 14.5847 16.2882 13.8117 16.2882 13.0616C16.2882 11.5085 16.3521 10.7616 17.8215 10.7616C17.9571 10.7616 18.0871 10.7078 18.183 10.6119C18.2788 10.5161 18.3327 10.3861 18.3327 10.2505C18.3327 10.115 18.2788 9.98496 18.183 9.88911C18.0871 9.79326 17.9571 9.73941 17.8215 9.73941Z" fill="#303030"/>
<path d="M11.4123 9.08609L9.99805 10.5003L8.58383 11.9145M8.58383 9.08609L11.4123 11.9145" stroke="#303030" stroke-linecap="round"/>
</g>
<defs>
<clipPath id="clip0_75_27054">
<rect width="16" height="15" fill="white" transform="translate(1.99805 2.5)"/>
</clipPath>
</defs>
</svg>
