<svg width="24" height="24" viewBox="0 0 24 24" fill="none" xmlns="http://www.w3.org/2000/svg">
<mask id="mask0_6_1397" style="mask-type:alpha" maskUnits="userSpaceOnUse" x="0" y="0" width="24" height="24">
<rect width="24" height="24" fill="#D9D9D9"/>
</mask>
<g mask="url(#mask0_6_1397)">
<path d="M12 12.9288L7.72691 17.2019C7.58846 17.3403 7.43943 17.407 7.27981 17.4019C7.12021 17.3968 6.96798 17.3218 6.82311 17.1769C6.67823 17.032 6.60579 16.8772 6.60579 16.7125C6.60579 16.5477 6.67823 16.3929 6.82311 16.2481L11.0712 12L6.79811 7.72687C6.65965 7.58842 6.59298 7.43522 6.59811 7.26727C6.60323 7.09934 6.67823 6.94294 6.82311 6.79807C6.96798 6.65319 7.12278 6.58075 7.28751 6.58075C7.45225 6.58075 7.60705 6.65319 7.75191 6.79807L12 11.0711L16.2731 6.79807C16.4116 6.65961 16.5648 6.58877 16.7327 6.58557C16.9006 6.58236 17.057 6.65319 17.2019 6.79807C17.3468 6.94294 17.4192 7.09774 17.4192 7.26247C17.4192 7.42721 17.3468 7.58201 17.2019 7.72687L12.9288 12L17.2019 16.2731C17.3404 16.4115 17.4112 16.5606 17.4144 16.7202C17.4176 16.8798 17.3468 17.032 17.2019 17.1769C17.057 17.3218 16.9022 17.3942 16.7375 17.3942C16.5728 17.3942 16.418 17.3218 16.2731 17.1769L12 12.9288Z" fill="#303030"/>
</g>
</svg>
