<svg width="24" height="24" viewBox="0 0 24 24" fill="none" xmlns="http://www.w3.org/2000/svg">
<mask id="mask0_6_1393" style="mask-type:alpha" maskUnits="userSpaceOnUse" x="0" y="0" width="24" height="24">
<rect width="24" height="24" fill="#D9D9D9"/>
</mask>
<g mask="url(#mask0_6_1393)">
<path d="M8.5 16.4444V7.55591C8.5 7.29191 8.59042 7.07524 8.77125 6.90591C8.95192 6.73674 9.16283 6.65216 9.404 6.65216C9.48083 6.65216 9.56025 6.66308 9.64225 6.68491C9.72442 6.70658 9.80392 6.73924 9.88075 6.78291L16.8767 11.2367C17.0141 11.3303 17.117 11.4425 17.1855 11.5732C17.2542 11.704 17.2885 11.8463 17.2885 12.0002C17.2885 12.154 17.2542 12.2963 17.1855 12.4272C17.117 12.5578 17.0141 12.67 16.8767 12.7637L9.88075 17.2174C9.80392 17.2611 9.72442 17.2937 9.64225 17.3154C9.56025 17.3372 9.48083 17.3482 9.404 17.3482C9.16283 17.3482 8.95192 17.2636 8.77125 17.0944C8.59042 16.9251 8.5 16.7084 8.5 16.4444ZM10 15.3502L15.2693 12.0002L10 8.65016V15.3502Z" fill="#303030"/>
</g>
</svg>
