<svg width="24" height="24" viewBox="0 0 24 24" fill="none" xmlns="http://www.w3.org/2000/svg">
<mask id="mask0_6_1394" style="mask-type:alpha" maskUnits="userSpaceOnUse" x="0" y="0" width="24" height="24">
<rect x="24" y="1.04907e-06" width="24" height="24" transform="rotate(90 24 1.04907e-06)" fill="#D9D9D9"/>
</mask>
<g mask="url(#mask0_6_1394)">
<path d="M6.77078 17.2268L12.3896 17.2404C12.5763 17.2404 12.7325 17.3008 12.8581 17.4218C12.9836 17.5428 13.0464 17.7012 13.0464 17.8971C13.0464 18.093 12.987 18.2503 12.8683 18.3689C12.7495 18.4877 12.5922 18.5471 12.3963 18.5471L6.77078 18.5402C6.40285 18.5402 6.09196 18.4133 5.8381 18.1595C5.58425 17.9056 5.45733 17.5947 5.45733 17.2268L5.45715 11.6079C5.45727 11.4211 5.51855 11.2679 5.641 11.1483C5.76321 11.0287 5.92225 10.9689 6.11812 10.9689C6.31399 10.9689 6.47014 11.0293 6.58658 11.1503C6.70301 11.2714 6.76353 11.4276 6.76813 11.6189L6.77078 17.2268ZM17.2307 6.7669L11.5982 6.75347C11.4114 6.75335 11.2541 6.69389 11.1264 6.5751C10.9985 6.45642 10.9368 6.29691 10.9413 6.09657C10.9414 5.90081 11.002 5.74466 11.123 5.62811C11.2439 5.51167 11.4023 5.45345 11.5982 5.45345L17.2307 5.45345C17.5986 5.45345 17.9095 5.58038 18.1633 5.83423C18.4172 6.08808 18.5441 6.39897 18.5441 6.7669L18.5441 12.3994C18.5441 12.586 18.4888 12.7392 18.3783 12.859C18.2676 12.9786 18.1144 13.0385 17.9187 13.0386C17.7183 13.0431 17.5599 12.9825 17.4435 12.8569C17.3269 12.7313 17.2664 12.573 17.2618 12.3817L17.2307 6.7669Z" fill="#303030"/>
</g>
</svg>
