<svg preserveAspectRatio="none" width="100%" height="100%" overflow="visible" style="display: block;" viewBox="0 0 28 28" fill="none" xmlns="http://www.w3.org/2000/svg">
<g id="32px/social/birdeye">
<g id="Rectangle">
</g>
<path id="Fill 1" fill-rule="evenodd" clip-rule="evenodd" d="M17.6417 15.8029L17.6417 15.8027L17.6384 15.8014C17.5927 15.7816 17.5463 15.7632 17.4992 15.7463L12.7315 13.8611L12.7311 13.8618C12.6006 13.804 12.4564 13.7713 12.3044 13.7713C11.7231 13.7713 11.2518 14.2403 11.2518 14.8187C11.2518 15.0578 11.3332 15.2774 11.4688 15.4537L11.4681 15.4544L11.4764 15.4638C11.5005 15.4944 11.5259 15.524 11.5532 15.5517L14.9714 19.459L14.9715 19.4589C15.3977 19.9372 16.0196 20.2391 16.7125 20.2391C17.9972 20.2391 19.0387 19.2029 19.0387 17.9247C19.0387 16.9752 18.4638 16.1598 17.6417 15.8029M16.0713 7.92504C17.1523 7.58657 18.3171 8.14557 18.673 9.17345C19.0289 10.2013 18.4411 11.3088 17.36 11.6473C16.2791 11.9856 15.1142 11.4266 14.7583 10.3989C14.4025 9.37094 14.9903 8.26336 16.0713 7.92504M23.5537 9.17994C23.3965 8.95849 23.168 8.81665 22.9198 8.75419L22.9196 8.75053L21.9876 8.50627C21.9741 8.46262 21.9653 8.41842 21.9506 8.37481C20.9828 5.51383 17.8153 3.95809 14.8755 4.89999C13.3526 5.38783 12.1944 6.45242 11.5617 7.76098L9.87757 10.4368L5.88029 8.85972L5.87765 8.86265C5.62588 8.76042 5.33869 8.73796 5.05933 8.82742C4.44192 9.02534 4.10609 9.67275 4.30931 10.2738C4.33911 10.3616 4.38134 10.4416 4.42915 10.5168L4.4222 10.5248L8.59266 16.045C8.59643 16.05 8.59829 16.0555 8.60205 16.0603C8.60577 16.0655 8.61067 16.0695 8.61463 16.0746L11.5983 20.2565C12.9021 22.5847 15.7227 23.9859 18.4456 23.1135C21.3852 22.1718 22.984 19.089 22.0161 16.228C21.7148 15.3376 21.2002 14.5738 20.5458 13.9722C21.3708 13.1844 21.9306 12.1679 22.1398 11.0647L23.0412 10.8043L23.0406 10.7945C23.1205 10.7643 23.1987 10.7278 23.2723 10.6784C23.7751 10.3402 23.9012 9.66943 23.5537 9.17994" fill="var(--fill-0, #1976D2)"/>
</g>
</svg>
