<svg width="237" height="205" viewBox="0 0 237 205" fill="none" xmlns="http://www.w3.org/2000/svg">
<path d="M19 24C19 10.7452 29.7452 0 43 0H237V181C237 194.255 226.255 205 213 205H19V24Z" fill="#8D9DCA" fill-opacity="0.3"/>
<path d="M47 75C47 70.5817 50.5817 67 55 67H207C211.418 67 215 70.5817 215 75V151C215 155.418 211.418 159 207 159H55C50.5817 159 47 155.418 47 151V75Z" fill="white"/>
<path d="M198 80V80.5H199C199.234 80.5 199.463 80.5228 199.684 80.5664L199.779 80.0762C200.304 80.1799 200.792 80.3864 201.222 80.6738L200.944 81.0889C201.326 81.3445 201.655 81.6738 201.911 82.0557L202.325 81.7773C202.613 82.2067 202.819 82.6946 202.923 83.2197H202.924L202.434 83.3164C202.477 83.5371 202.5 83.7656 202.5 84V84.9004H203V86.7002H202.5V88.5H203V90.2998H202.5V92.0996H203V93.9004H202.5V95.7002H203V97.5H202.5V99.2998H203V101.1H202.5V102C202.5 102.234 202.477 102.463 202.434 102.684L202.923 102.779C202.819 103.304 202.613 103.792 202.325 104.222L201.911 103.944C201.655 104.326 201.326 104.655 200.944 104.911L201.222 105.325C200.792 105.613 200.304 105.819 199.779 105.923L199.684 105.434C199.463 105.477 199.234 105.5 199 105.5H198V106H196V105.5H194V106H192V105.5H190V106H188V105.5H186V106H184V105.5H182V106H180V105.5H178V106H176V105.5H174V106H172V105.5H170V106H168V105.5H166V106H164V105.5H162V106H160V105.5H158V106H156V105.5H154V106H152V105.5H150V106H148V105.5H146V106H144V105.5H142V106H140V105.5H138V106H136V105.5H134V106H132V105.5H130V106H128V105.5H126V106H124V105.5H122V106H120V105.5H118V106H116V105.5H114V106H112V105.5H110V106H108V105.5H106V106H104V105.5H102V106H100V105.5H98V106H96V105.5H94V106H92V105.5H90V106H88V105.5H86V106H84V105.5H82V106H80V105.5H78V106H76V105.5H74V106H72V105.5H70V106H68V105.5H66V106H64V105.5H63C62.7656 105.5 62.5371 105.477 62.3164 105.434L62.2197 105.923C61.6946 105.819 61.2067 105.613 60.7773 105.325L61.0557 104.911C60.6738 104.655 60.3445 104.326 60.0889 103.944L59.6738 104.222C59.3864 103.792 59.1799 103.304 59.0762 102.779L59.5664 102.684C59.5337 102.518 59.5124 102.348 59.5039 102.175L59.5 102V101.1H59V99.2998H59.5V97.5H59V95.7002H59.5V93.9004H59V92.0996H59.5V90.2998H59V88.5H59.5V86.7002H59V84.9004H59.5V84C59.5 83.7656 59.5228 83.5371 59.5664 83.3164L59.0762 83.2197C59.18 82.6947 59.3864 82.2066 59.6738 81.7773L60.0889 82.0557C60.3445 81.6738 60.6738 81.3445 61.0557 81.0889L60.7773 80.6738C61.2066 80.3864 61.6947 80.18 62.2197 80.0762L62.3164 80.5664C62.4819 80.5337 62.6518 80.5124 62.8252 80.5039L63 80.5H64V80H66V80.5H68V80H70V80.5H72V80H74V80.5H76V80H78V80.5H80V80H82V80.5H84V80H86V80.5H88V80H90V80.5H92V80H94V80.5H96V80H98V80.5H100V80H102V80.5H104V80H106V80.5H108V80H110V80.5H112V80H114V80.5H116V80H118V80.5H120V80H122V80.5H124V80H126V80.5H128V80H130V80.5H132V80H134V80.5H136V80H138V80.5H140V80H142V80.5H144V80H146V80.5H148V80H150V80.5H152V80H154V80.5H156V80H158V80.5H160V80H162V80.5H164V80H166V80.5H168V80H170V80.5H172V80H174V80.5H176V80H178V80.5H180V80H182V80.5H184V80H186V80.5H188V80H190V80.5H192V80H194V80.5H196V80H198Z" fill="#EBEFF6"/>
<path d="M198 80V80.5H199C199.234 80.5 199.463 80.5228 199.684 80.5664L199.779 80.0762C200.304 80.1799 200.792 80.3864 201.222 80.6738L200.944 81.0889C201.326 81.3445 201.655 81.6738 201.911 82.0557L202.325 81.7773C202.613 82.2067 202.819 82.6946 202.923 83.2197H202.924L202.434 83.3164C202.477 83.5371 202.5 83.7656 202.5 84V84.9004H203V86.7002H202.5V88.5H203V90.2998H202.5V92.0996H203V93.9004H202.5V95.7002H203V97.5H202.5V99.2998H203V101.1H202.5V102C202.5 102.234 202.477 102.463 202.434 102.684L202.923 102.779C202.819 103.304 202.613 103.792 202.325 104.222L201.911 103.944C201.655 104.326 201.326 104.655 200.944 104.911L201.222 105.325C200.792 105.613 200.304 105.819 199.779 105.923L199.684 105.434C199.463 105.477 199.234 105.5 199 105.5H198V106H196V105.5H194V106H192V105.5H190V106H188V105.5H186V106H184V105.5H182V106H180V105.5H178V106H176V105.5H174V106H172V105.5H170V106H168V105.5H166V106H164V105.5H162V106H160V105.5H158V106H156V105.5H154V106H152V105.5H150V106H148V105.5H146V106H144V105.5H142V106H140V105.5H138V106H136V105.5H134V106H132V105.5H130V106H128V105.5H126V106H124V105.5H122V106H120V105.5H118V106H116V105.5H114V106H112V105.5H110V106H108V105.5H106V106H104V105.5H102V106H100V105.5H98V106H96V105.5H94V106H92V105.5H90V106H88V105.5H86V106H84V105.5H82V106H80V105.5H78V106H76V105.5H74V106H72V105.5H70V106H68V105.5H66V106H64V105.5H63C62.7656 105.5 62.5371 105.477 62.3164 105.434L62.2197 105.923C61.6946 105.819 61.2067 105.613 60.7773 105.325L61.0557 104.911C60.6738 104.655 60.3445 104.326 60.0889 103.944L59.6738 104.222C59.3864 103.792 59.1799 103.304 59.0762 102.779L59.5664 102.684C59.5337 102.518 59.5124 102.348 59.5039 102.175L59.5 102V101.1H59V99.2998H59.5V97.5H59V95.7002H59.5V93.9004H59V92.0996H59.5V90.2998H59V88.5H59.5V86.7002H59V84.9004H59.5V84C59.5 83.7656 59.5228 83.5371 59.5664 83.3164L59.0762 83.2197C59.18 82.6947 59.3864 82.2066 59.6738 81.7773L60.0889 82.0557C60.3445 81.6738 60.6738 81.3445 61.0557 81.0889L60.7773 80.6738C61.2066 80.3864 61.6947 80.18 62.2197 80.0762L62.3164 80.5664C62.4819 80.5337 62.6518 80.5124 62.8252 80.5039L63 80.5H64V80H66V80.5H68V80H70V80.5H72V80H74V80.5H76V80H78V80.5H80V80H82V80.5H84V80H86V80.5H88V80H90V80.5H92V80H94V80.5H96V80H98V80.5H100V80H102V80.5H104V80H106V80.5H108V80H110V80.5H112V80H114V80.5H116V80H118V80.5H120V80H122V80.5H124V80H126V80.5H128V80H130V80.5H132V80H134V80.5H136V80H138V80.5H140V80H142V80.5H144V80H146V80.5H148V80H150V80.5H152V80H154V80.5H156V80H158V80.5H160V80H162V80.5H164V80H166V80.5H168V80H170V80.5H172V80H174V80.5H176V80H178V80.5H180V80H182V80.5H184V80H186V80.5H188V80H190V80.5H192V80H194V80.5H196V80H198Z" stroke="#8D9DCA" stroke-dasharray="2 2"/>
<mask id="mask0_20_1998" style="mask-type:alpha" maskUnits="userSpaceOnUse" x="123" y="85" width="16" height="16">
<rect x="123" y="85" width="16" height="16" fill="#D9D9D9"/>
</mask>
<g mask="url(#mask0_20_1998)">
<path d="M130.5 93.4998H127.167C127.025 93.4998 126.907 93.4519 126.811 93.356C126.715 93.2601 126.667 93.1413 126.667 92.9997C126.667 92.8579 126.715 92.7392 126.811 92.6435C126.907 92.5477 127.025 92.4998 127.167 92.4998H130.5V89.1665C130.5 89.0248 130.548 88.9061 130.644 88.8103C130.74 88.7144 130.859 88.6665 131 88.6665C131.142 88.6665 131.261 88.7144 131.357 88.8103C131.452 88.9061 131.5 89.0248 131.5 89.1665V92.4998H134.834C134.975 92.4998 135.094 92.5478 135.19 92.6437C135.286 92.7396 135.334 92.8583 135.334 93C135.334 93.1418 135.286 93.2605 135.19 93.3562C135.094 93.4519 134.975 93.4998 134.834 93.4998H131.5V96.8332C131.5 96.9748 131.452 97.0936 131.356 97.1893C131.261 97.2852 131.142 97.3332 131 97.3332C130.858 97.3332 130.74 97.2852 130.644 97.1893C130.548 97.0936 130.5 96.9748 130.5 96.8332V93.4998Z" fill="#303030"/>
</g>
<path d="M59 122C59 119.791 60.7909 118 63 118H199C201.209 118 203 119.791 203 122V142C203 144.209 201.209 146 199 146H63C60.7909 146 59 144.209 59 142V122Z" fill="#EBEFF6"/>
<mask id="mask1_20_1998" style="mask-type:alpha" maskUnits="userSpaceOnUse" x="67" y="122" width="20" height="20">
<rect x="67" y="122" width="20" height="20" fill="#D9D9D9"/>
</mask>
<g mask="url(#mask1_20_1998)">
<path d="M73.0895 140.75C72.6685 140.75 72.3122 140.604 72.0205 140.312C71.7288 140.021 71.583 139.665 71.583 139.244V124.756C71.583 124.335 71.7288 123.979 72.0205 123.688C72.3122 123.396 72.6685 123.25 73.0895 123.25H80.9099C81.3309 123.25 81.6872 123.396 81.9788 123.688C82.2705 123.979 82.4163 124.335 82.4163 124.756V139.244C82.4163 139.665 82.2705 140.021 81.9788 140.312C81.6872 140.604 81.3309 140.75 80.9099 140.75H73.0895ZM72.833 136.808V139.244C72.833 139.308 72.8597 139.366 72.9132 139.42C72.9665 139.473 73.0253 139.5 73.0895 139.5H80.9099C80.974 139.5 81.0328 139.473 81.0861 139.42C81.1396 139.366 81.1663 139.308 81.1663 139.244V136.808H72.833ZM76.9997 138.891C77.2037 138.891 77.3776 138.819 77.5213 138.675C77.665 138.532 77.7368 138.358 77.7368 138.154C77.7368 137.95 77.665 137.776 77.5213 137.632C77.3776 137.489 77.2037 137.417 76.9997 137.417C76.7956 137.417 76.6218 137.489 76.478 137.632C76.3344 137.776 76.2626 137.95 76.2626 138.154C76.2626 138.358 76.3344 138.532 76.478 138.675C76.6218 138.819 76.7956 138.891 76.9997 138.891ZM72.833 135.558H81.1663V126.792H72.833V135.558ZM72.833 125.542H81.1663V124.756C81.1663 124.692 81.1396 124.634 81.0861 124.58C81.0328 124.527 80.974 124.5 80.9099 124.5H73.0895C73.0253 124.5 72.9665 124.527 72.9132 124.58C72.8597 124.634 72.833 124.692 72.833 124.756V125.542Z" fill="#8D9DCA"/>
</g>
<rect x="91.0859" y="130" width="92" height="4" rx="2" fill="#8D9DCA"/>
<path d="M4 45.5H144C145.933 45.5 147.5 47.067 147.5 49V69C147.5 70.933 145.933 72.5 144 72.5H4C2.067 72.5 0.5 70.933 0.5 69V49C0.5 47.067 2.067 45.5 4 45.5Z" fill="#ECF5FD"/>
<path d="M4 45.5H144C145.933 45.5 147.5 47.067 147.5 49V69C147.5 70.933 145.933 72.5 144 72.5H4C2.067 72.5 0.5 70.933 0.5 69V49C0.5 47.067 2.067 45.5 4 45.5Z" stroke="#0099FF"/>
<mask id="mask2_20_1998" style="mask-type:alpha" maskUnits="userSpaceOnUse" x="8" y="49" width="20" height="20">
<rect x="8" y="49" width="20" height="20" fill="#D9D9D9"/>
</mask>
<g mask="url(#mask2_20_1998)">
<path d="M14.0895 67.75C13.6685 67.75 13.3122 67.6042 13.0205 67.3125C12.7288 67.0208 12.583 66.6645 12.583 66.2435V51.7565C12.583 51.3355 12.7288 50.9792 13.0205 50.6875C13.3122 50.3958 13.6685 50.25 14.0895 50.25H21.9099C22.3309 50.25 22.6872 50.3958 22.9788 50.6875C23.2705 50.9792 23.4163 51.3355 23.4163 51.7565V66.2435C23.4163 66.6645 23.2705 67.0208 22.9788 67.3125C22.6872 67.6042 22.3309 67.75 21.9099 67.75H14.0895ZM13.833 63.8077V66.2435C13.833 66.3077 13.8597 66.3665 13.9132 66.4198C13.9665 66.4733 14.0253 66.5 14.0895 66.5H21.9099C21.974 66.5 22.0328 66.4733 22.0861 66.4198C22.1396 66.3665 22.1663 66.3077 22.1663 66.2435V63.8077H13.833ZM17.9997 65.891C18.2037 65.891 18.3776 65.8192 18.5213 65.6754C18.665 65.5318 18.7368 65.3579 18.7368 65.1538C18.7368 64.9497 18.665 64.7759 18.5213 64.6323C18.3776 64.4885 18.2037 64.4167 17.9997 64.4167C17.7956 64.4167 17.6218 64.4885 17.478 64.6323C17.3344 64.7759 17.2626 64.9497 17.2626 65.1538C17.2626 65.3579 17.3344 65.5318 17.478 65.6754C17.6218 65.8192 17.7956 65.891 17.9997 65.891ZM13.833 62.5577H22.1663V53.7917H13.833V62.5577ZM13.833 52.5417H22.1663V51.7565C22.1663 51.6923 22.1396 51.6335 22.0861 51.5802C22.0328 51.5267 21.974 51.5 21.9099 51.5H14.0895C14.0253 51.5 13.9665 51.5267 13.9132 51.5802C13.8597 51.6335 13.833 51.6923 13.833 51.7565V52.5417Z" fill="#3790E7"/>
</g>
<rect x="32" y="57" width="92" height="4" rx="2" fill="#3790E7"/>
</svg>
