<svg width="24" height="24" viewBox="0 0 24 24" fill="none" xmlns="http://www.w3.org/2000/svg">
<mask id="mask0_1328_55472" style="mask-type:alpha" maskUnits="userSpaceOnUse" x="0" y="0" width="24" height="24">
<rect width="24" height="24" fill="#D9D9D9"/>
</mask>
<g mask="url(#mask0_1328_55472)">
<path d="M15.1442 12.0977L11.9058 8.84964C11.8224 8.76606 11.7615 8.67775 11.7231 8.58472C11.6846 8.49169 11.6654 8.39201 11.6654 8.2857C11.6654 8.17936 11.6846 8.0801 11.7231 7.98792C11.7615 7.89575 11.8192 7.8112 11.8962 7.73427L15.1442 4.48624C15.2211 4.40933 15.3119 4.34747 15.4166 4.30067C15.5213 4.25387 15.6268 4.23047 15.7332 4.23047C15.8395 4.23047 15.9387 4.25387 16.0309 4.30067C16.1231 4.34747 16.2076 4.40933 16.2846 4.48624L19.5229 7.73427C19.6063 7.81787 19.6672 7.90619 19.7057 7.99922C19.7441 8.09225 19.7634 8.19193 19.7634 8.29824C19.7634 8.40458 19.7441 8.50383 19.7057 8.59599C19.6672 8.68818 19.6095 8.77273 19.5326 8.84964L16.2846 12.0977C16.2076 12.1746 16.1227 12.2365 16.0296 12.2833C15.9366 12.3301 15.8369 12.3534 15.7306 12.3534C15.6243 12.3534 15.5192 12.3301 15.4153 12.2833C15.3115 12.2365 15.2211 12.1746 15.1442 12.0977ZM4.40771 9.80449V5.21829C4.40771 4.99083 4.48466 4.79881 4.63854 4.64224C4.79241 4.48568 4.98307 4.40739 5.21054 4.40739H9.79674C10.0242 4.40739 10.2162 4.48434 10.3728 4.63822C10.5294 4.79209 10.6076 4.98275 10.6076 5.21022V9.79642C10.6076 10.0239 10.5307 10.2159 10.3768 10.3725C10.223 10.529 10.0323 10.6073 9.80481 10.6073H5.21861C4.99115 10.6073 4.79913 10.5304 4.64256 10.3765C4.486 10.2226 4.40771 10.032 4.40771 9.80449ZM13.3923 18.7891V14.2029C13.3923 13.9754 13.4692 13.7834 13.6231 13.6268C13.777 13.4703 13.9676 13.392 14.1951 13.392H18.7813C19.0088 13.392 19.2008 13.4689 19.3574 13.6228C19.5139 13.7767 19.5922 13.9673 19.5922 14.1948V18.781C19.5922 19.0085 19.5153 19.2005 19.3614 19.357C19.2075 19.5136 19.0169 19.5919 18.7894 19.5919H14.2032C13.9757 19.5919 13.7837 19.515 13.6271 19.3611C13.4706 19.2072 13.3923 19.0165 13.3923 18.7891ZM4.40771 18.7891V14.2029C4.40771 13.9754 4.48466 13.7834 4.63854 13.6268C4.79241 13.4703 4.98307 13.392 5.21054 13.392H9.79674C10.0242 13.392 10.2162 13.4689 10.3728 13.6228C10.5294 13.7767 10.6076 13.9673 10.6076 14.1948V18.781C10.6076 19.0085 10.5307 19.2005 10.3768 19.357C10.223 19.5136 10.0323 19.5919 9.80481 19.5919H5.21861C4.99115 19.5919 4.79913 19.515 4.64256 19.3611C4.486 19.2072 4.40771 19.0165 4.40771 18.7891ZM5.70769 9.30737H9.30769V5.70737H5.70769V9.30737ZM15.7269 10.842L18.2519 8.29197L15.7269 5.74197L13.1769 8.29197L15.7269 10.842ZM14.6922 18.2919H18.2922V14.6919H14.6922V18.2919ZM5.70769 18.2919H9.30769V14.6919H5.70769V18.2919Z" fill="currentColor"/>
</g>
</svg>
