<svg width="24" height="24" viewBox="0 0 24 24" fill="none" xmlns="http://www.w3.org/2000/svg">
<mask id="mask0_1328_55068" style="mask-type:alpha" maskUnits="userSpaceOnUse" x="0" y="0" width="24" height="24">
<rect width="24" height="24" fill="#D9D9D9"/>
</mask>
<g mask="url(#mask0_1328_55068)">
<path d="M5.7078 19.8996C5.25766 19.8996 4.87718 19.7441 4.56635 19.4333C4.25551 19.1225 4.1001 18.742 4.1001 18.2919V15.0496C4.1001 14.8651 4.16181 14.7106 4.28522 14.5862C4.40864 14.4618 4.56184 14.3996 4.74482 14.3996C4.92782 14.3996 5.08278 14.4618 5.2097 14.5862C5.33661 14.7106 5.40007 14.8651 5.40007 15.0496V18.2919C5.40007 18.3688 5.43212 18.4393 5.49622 18.5034C5.56034 18.5675 5.63086 18.5996 5.7078 18.5996H8.9501C9.13458 18.5996 9.28903 18.6613 9.41345 18.7847C9.53786 18.9081 9.60007 19.0613 9.60007 19.2443C9.60007 19.4273 9.53786 19.5822 9.41345 19.7092C9.28903 19.8361 9.13458 19.8996 8.9501 19.8996H5.7078ZM18.2923 19.8996H15.05C14.8656 19.8996 14.7111 19.8379 14.5867 19.7144C14.4623 19.591 14.4001 19.4378 14.4001 19.2548C14.4001 19.0718 14.4623 18.9169 14.5867 18.79C14.7111 18.663 14.8656 18.5996 15.05 18.5996H18.2923C18.3693 18.5996 18.4398 18.5675 18.5039 18.5034C18.568 18.4393 18.6001 18.3688 18.6001 18.2919V15.0496C18.6001 14.8651 18.6618 14.7106 18.7852 14.5862C18.9086 14.4618 19.0618 14.3996 19.2448 14.3996C19.4278 14.3996 19.5827 14.4618 19.7096 14.5862C19.8366 14.7106 19.9 14.8651 19.9 15.0496V18.2919C19.9 18.742 19.7446 19.1225 19.4338 19.4333C19.123 19.7441 18.7425 19.8996 18.2923 19.8996ZM4.1001 8.94961V5.70731C4.1001 5.25718 4.25551 4.87669 4.56635 4.56586C4.87718 4.25503 5.25766 4.09961 5.7078 4.09961H8.9501C9.13458 4.09961 9.28903 4.16132 9.41345 4.28474C9.53786 4.40815 9.60007 4.56135 9.60007 4.74433C9.60007 4.92733 9.53786 5.08229 9.41345 5.20921C9.28903 5.33613 9.13458 5.39959 8.9501 5.39959H5.7078C5.63086 5.39959 5.56034 5.43164 5.49622 5.49574C5.43212 5.55985 5.40007 5.63038 5.40007 5.70731V8.94961C5.40007 9.13409 5.33836 9.28854 5.21495 9.41296C5.09155 9.53738 4.93835 9.59959 4.75535 9.59959C4.57236 9.59959 4.41741 9.53738 4.2905 9.41296C4.16356 9.28854 4.1001 9.13409 4.1001 8.94961ZM18.6001 8.94961V5.70731C18.6001 5.63038 18.568 5.55985 18.5039 5.49574C18.4398 5.43164 18.3693 5.39959 18.2923 5.39959H15.05C14.8656 5.39959 14.7111 5.33788 14.5867 5.21446C14.4623 5.09106 14.4001 4.93786 14.4001 4.75486C14.4001 4.57188 14.4623 4.41693 14.5867 4.29001C14.7111 4.16308 14.8656 4.09961 15.05 4.09961H18.2923C18.7425 4.09961 19.123 4.25503 19.4338 4.56586C19.7446 4.87669 19.9 5.25718 19.9 5.70731V8.94961C19.9 9.13409 19.8383 9.28854 19.7149 9.41296C19.5915 9.53738 19.4383 9.59959 19.2553 9.59959C19.0723 9.59959 18.9174 9.53738 18.7904 9.41296C18.6635 9.28854 18.6001 9.13409 18.6001 8.94961ZM11.9944 16.2996C10.7995 16.2996 9.78503 15.8807 8.95105 15.0429C8.11708 14.2052 7.7001 13.1889 7.7001 11.9939C7.7001 10.799 8.11897 9.78454 8.95672 8.95056C9.79446 8.11659 10.8108 7.69961 12.0057 7.69961C13.2007 7.69961 14.2151 8.11848 15.0491 8.95623C15.8831 9.79397 16.3 10.8103 16.3 12.0052C16.3 13.2002 15.8812 14.2146 15.0434 15.0486C14.2057 15.8826 13.1894 16.2996 11.9944 16.2996ZM12.0001 14.9996C12.8334 14.9996 13.5417 14.7079 14.1251 14.1246C14.7084 13.5413 15.0001 12.8329 15.0001 11.9996C15.0001 11.1663 14.7084 10.4579 14.1251 9.87459C13.5417 9.29125 12.8334 8.99959 12.0001 8.99959C11.1667 8.99959 10.4584 9.29125 9.87507 9.87459C9.29174 10.4579 9.00007 11.1663 9.00007 11.9996C9.00007 12.8329 9.29174 13.5413 9.87507 14.1246C10.4584 14.7079 11.1667 14.9996 12.0001 14.9996Z" fill="currentColor"/>
</g>
</svg>
