<svg width="24" height="24" viewBox="0 0 24 24" fill="none" xmlns="http://www.w3.org/2000/svg">
<mask id="mask0_1328_11786" style="mask-type:alpha" maskUnits="userSpaceOnUse" x="0" y="0" width="24" height="24">
<rect width="24" height="24" fill="#D9D9D9"/>
</mask>
<g mask="url(#mask0_1328_11786)">
<path d="M9.11534 17.1157C8.64802 17.1157 8.25042 16.9517 7.92254 16.6239C7.59465 16.296 7.43071 15.8984 7.43071 15.4311V14.7311H18.2057L18.523 15.0484V7.20037H19.223C19.6903 7.20037 20.0879 7.36431 20.4158 7.69219C20.7436 8.02007 20.9076 8.41767 20.9076 8.88497V18.3195C20.9076 18.6758 20.7435 18.9232 20.4153 19.0617C20.0871 19.2002 19.7963 19.1429 19.5431 18.8897L17.7692 17.1157H9.11534ZM6.22876 12.9311L4.45641 14.7051C4.20341 14.9583 3.9128 15.0153 3.58459 14.876C3.25639 14.7367 3.09229 14.4879 3.09229 14.1297V4.58502C3.09229 4.1177 3.25623 3.7201 3.58411 3.39222C3.91199 3.06433 4.30959 2.90039 4.77691 2.90039H15.0384C15.5057 2.90039 15.9033 3.06433 16.2312 3.39222C16.5591 3.7201 16.723 4.1177 16.723 4.58502V11.2465C16.723 11.7138 16.5591 12.1114 16.2312 12.4393C15.9033 12.7672 15.5057 12.9311 15.0384 12.9311H6.22876ZM15.423 11.6311V4.20037H4.39226V12.3235L5.08461 11.6311H15.423Z" fill="currentColor"/>
</g>
</svg>
