<svg width="24" height="24" viewBox="0 0 24 24" fill="none" xmlns="http://www.w3.org/2000/svg">
<mask id="mask0_1328_55670" style="mask-type:alpha" maskUnits="userSpaceOnUse" x="0" y="0" width="24" height="24">
<rect width="24" height="24" fill="#D9D9D9"/>
</mask>
<g mask="url(#mask0_1328_55670)">
<path d="M5.7078 19.8996C5.26568 19.8996 4.88721 19.7422 4.57237 19.4274C4.25752 19.1125 4.1001 18.7341 4.1001 18.2919V5.7074C4.1001 5.26528 4.25752 4.88681 4.57237 4.57197C4.88721 4.25712 5.26568 4.0997 5.7078 4.0997H10.2136C10.302 3.6792 10.5059 3.32536 10.8251 3.0382C11.1443 2.75101 11.536 2.60742 12.0001 2.60742C12.4513 2.60742 12.8382 2.75101 13.1606 3.0382C13.4831 3.32536 13.6885 3.6792 13.7769 4.0997H18.2923C18.7345 4.0997 19.1129 4.25712 19.4278 4.57197C19.7426 4.88681 19.9 5.26528 19.9 5.7074V18.2919C19.9 18.7341 19.7426 19.1125 19.4278 19.4274C19.1129 19.7422 18.7345 19.8996 18.2923 19.8996H5.7078ZM5.7078 18.5997H18.2923C18.3693 18.5997 18.4398 18.5676 18.5039 18.5035C18.568 18.4394 18.6001 18.3689 18.6001 18.2919V5.7074C18.6001 5.63046 18.568 5.55994 18.5039 5.49582C18.4398 5.43172 18.3693 5.39967 18.2923 5.39967H16.3V7.2112C16.3 7.43895 16.2234 7.62986 16.07 7.78392C15.9167 7.93799 15.7267 8.01502 15.5 8.01502H8.49992C8.27326 8.01502 8.08329 7.93799 7.93002 7.78392C7.77674 7.62986 7.7001 7.43895 7.7001 7.2112V5.39967H5.7078C5.63086 5.39967 5.56034 5.43172 5.49622 5.49582C5.43212 5.55994 5.40007 5.63046 5.40007 5.7074V18.2919C5.40007 18.3689 5.43212 18.4394 5.49622 18.5035C5.56034 18.5676 5.63086 18.5997 5.7078 18.5997ZM11.9965 5.51507C12.2232 5.51507 12.4145 5.43838 12.5702 5.285C12.726 5.13161 12.8039 4.94155 12.8039 4.7148C12.8039 4.48806 12.7272 4.29681 12.5738 4.14105C12.4205 3.98528 12.2304 3.9074 12.0036 3.9074C11.7769 3.9074 11.5857 3.98409 11.4299 4.13747C11.2741 4.29086 11.1962 4.48091 11.1962 4.70765C11.1962 4.9344 11.2729 5.12566 11.4263 5.28142C11.5797 5.43719 11.7697 5.51507 11.9965 5.51507Z" fill="currentColor"/>
</g>
</svg>
