<svg width="24" height="24" viewBox="0 0 24 24" fill="none" xmlns="http://www.w3.org/2000/svg">
<mask id="mask0_1328_55120" style="mask-type:alpha" maskUnits="userSpaceOnUse" x="0" y="0" width="24" height="24">
<rect width="24" height="24" fill="#D9D9D9"/>
</mask>
<g mask="url(#mask0_1328_55120)">
<path d="M5.7095 12.5652H8.44425L8.91925 13.8805C8.95258 13.9676 9.0045 14.0356 9.075 14.0842C9.1455 14.1331 9.2295 14.1575 9.327 14.1575C9.48467 14.1575 9.608 14.0936 9.697 13.966C9.78617 13.8385 9.80383 13.701 9.75 13.5535L7.71925 8.18247C7.68592 8.0888 7.62658 8.01189 7.54125 7.95172C7.45608 7.89139 7.36158 7.86122 7.25775 7.86122H6.89625C6.79242 7.86122 6.69783 7.89139 6.6125 7.95172C6.52733 8.01189 6.46808 8.0888 6.43475 8.18247L4.40375 13.5632C4.34992 13.7042 4.36758 13.8385 4.45675 13.966C4.54592 14.0936 4.66933 14.1575 4.827 14.1575C4.92433 14.1575 5.01083 14.1331 5.0865 14.0842C5.16217 14.0356 5.21667 13.9626 5.25 13.8652L5.7095 12.5652ZM6.0155 11.7362L7.052 8.86897H7.102L8.1385 11.7362H6.0155ZM6.5 16.019C7.32817 16.019 8.13392 16.1129 8.91725 16.3007C9.70058 16.4886 10.4782 16.7831 11.25 17.1845V7.35347C10.5475 6.8958 9.78725 6.55255 8.96925 6.32372C8.15125 6.09489 7.32817 5.98047 6.5 5.98047C5.9 5.98047 5.33942 6.02755 4.81825 6.12172C4.29708 6.21605 3.7615 6.37022 3.2115 6.58422C3.13467 6.60989 3.08017 6.6468 3.048 6.69497C3.016 6.74297 3 6.7958 3 6.85347V16.3112C3 16.4011 3.03208 16.4668 3.09625 16.5085C3.16025 16.5501 3.23075 16.5549 3.30775 16.5227C3.78208 16.3612 4.28267 16.2369 4.8095 16.1497C5.3365 16.0626 5.9 16.019 6.5 16.019ZM12.75 17.1845C13.5218 16.7831 14.2994 16.4886 15.0828 16.3007C15.8661 16.1129 16.6718 16.019 17.5 16.019C18.1 16.019 18.6635 16.0626 19.1905 16.1497C19.7173 16.2369 20.2179 16.3612 20.6923 16.5227C20.7693 16.5549 20.8398 16.5501 20.9038 16.5085C20.9679 16.4668 21 16.4011 21 16.3112V6.85347C21 6.7958 20.984 6.74455 20.952 6.69972C20.9198 6.65489 20.8653 6.61639 20.7885 6.58422C20.2385 6.37022 19.7029 6.21605 19.1818 6.12172C18.6606 6.02755 18.1 5.98047 17.5 5.98047C16.6718 5.98047 15.8487 6.09489 15.0307 6.32372C14.2127 6.55255 13.4525 6.8958 12.75 7.35347V17.1845ZM11.453 18.892C11.283 18.8433 11.1224 18.7786 10.9713 18.6977C10.2828 18.3081 9.5625 18.0141 8.8105 17.816C8.05867 17.618 7.2885 17.519 6.5 17.519C5.88983 17.519 5.2905 17.5866 4.702 17.7217C4.1135 17.8571 3.54617 18.0561 3 18.319C2.64367 18.483 2.30458 18.457 1.98275 18.241C1.66092 18.025 1.5 17.7189 1.5 17.3227V6.46522C1.5 6.24972 1.5555 6.04747 1.6665 5.85847C1.77733 5.6693 1.93725 5.53305 2.14625 5.44972C2.82308 5.12022 3.5285 4.8763 4.2625 4.71797C4.9965 4.55964 5.74233 4.48047 6.5 4.48047C7.473 4.48047 8.42367 4.61347 9.352 4.87947C10.2802 5.14564 11.1628 5.5383 12 6.05747C12.8372 5.5383 13.7198 5.14564 14.648 4.87947C15.5763 4.61347 16.527 4.48047 17.5 4.48047C18.2577 4.48047 19.0035 4.55964 19.7375 4.71797C20.4715 4.8763 21.1769 5.12022 21.8538 5.44972C22.0628 5.53305 22.2227 5.6693 22.3335 5.85847C22.4445 6.04747 22.5 6.24972 22.5 6.46522V17.3227C22.5 17.7189 22.3327 18.0218 21.998 18.2315C21.6633 18.441 21.3114 18.4637 20.9423 18.2997C20.4026 18.0432 19.8433 17.849 19.2645 17.717C18.6857 17.585 18.0975 17.519 17.5 17.519C16.7115 17.519 15.9413 17.618 15.1895 17.816C14.4375 18.0141 13.7173 18.3081 13.0288 18.6977C12.8776 18.7786 12.717 18.8433 12.547 18.892C12.3772 18.9406 12.1948 18.965 12 18.965C11.8052 18.965 11.6228 18.9406 11.453 18.892ZM13.9423 8.86122C13.9423 8.74972 13.982 8.63564 14.0615 8.51897C14.141 8.4023 14.2314 8.32214 14.3328 8.27847C14.8289 8.0798 15.3395 7.92922 15.8645 7.82672C16.3895 7.72405 16.9347 7.67272 17.5 7.67272C17.827 7.67272 18.1433 7.69197 18.449 7.73047C18.7548 7.76897 19.0628 7.82155 19.373 7.88822C19.491 7.91505 19.5929 7.97914 19.6788 8.08047C19.7648 8.1818 19.8078 8.29972 19.8078 8.43422C19.8078 8.65989 19.7369 8.82497 19.5953 8.92947C19.4536 9.03397 19.2699 9.0593 19.0443 9.00547C18.8044 8.95547 18.5553 8.91955 18.297 8.89772C18.0387 8.87589 17.773 8.86497 17.5 8.86497C17.0153 8.86497 16.5407 8.91147 16.076 9.00447C15.6112 9.09747 15.1679 9.22347 14.7462 9.38247C14.5102 9.47347 14.3173 9.4683 14.1673 9.36697C14.0173 9.2658 13.9423 9.09722 13.9423 8.86122ZM13.9423 14.3227C13.9423 14.2112 13.982 14.0956 14.0615 13.9757C14.141 13.8559 14.2314 13.7741 14.3328 13.7305C14.8161 13.5318 15.3267 13.3828 15.8645 13.2835C16.4023 13.1841 16.9475 13.1345 17.5 13.1345C17.827 13.1345 18.1433 13.1536 18.449 13.192C18.7548 13.2305 19.0628 13.2831 19.373 13.3497C19.491 13.3767 19.5929 13.4408 19.6788 13.542C19.7648 13.6433 19.8078 13.7613 19.8078 13.896C19.8078 14.1215 19.7369 14.2865 19.5953 14.391C19.4536 14.4955 19.2699 14.5208 19.0443 14.467C18.8044 14.417 18.5553 14.3811 18.297 14.3592C18.0387 14.3376 17.773 14.3267 17.5 14.3267C17.0218 14.3267 16.5519 14.3722 16.0903 14.4632C15.6288 14.5542 15.1871 14.6824 14.7653 14.8477C14.5294 14.9452 14.3333 14.9427 14.177 14.8402C14.0205 14.7376 13.9423 14.5651 13.9423 14.3227ZM13.9423 11.6017C13.9423 11.4902 13.982 11.3761 14.0615 11.2595C14.141 11.1428 14.2314 11.0626 14.3328 11.019C14.8289 10.8203 15.3395 10.6696 15.8645 10.567C16.3895 10.4645 16.9347 10.4132 17.5 10.4132C17.827 10.4132 18.1433 10.4325 18.449 10.471C18.7548 10.5093 19.0628 10.5618 19.373 10.6285C19.491 10.6555 19.5929 10.7196 19.6788 10.821C19.7648 10.9221 19.8078 11.0401 19.8078 11.1747C19.8078 11.4004 19.7369 11.5655 19.5953 11.67C19.4536 11.7745 19.2699 11.7998 19.0443 11.746C18.8044 11.696 18.5553 11.6601 18.297 11.6382C18.0387 11.6164 17.773 11.6055 17.5 11.6055C17.0153 11.6055 16.5407 11.652 16.076 11.745C15.6112 11.8378 15.1679 11.9637 14.7462 12.1227C14.5102 12.2137 14.3173 12.2086 14.1673 12.1075C14.0173 12.0061 13.9423 11.8376 13.9423 11.6017Z" fill="currentColor"/>
</g>
</svg>
