<svg width="24" height="24" viewBox="0 0 24 24" fill="none" xmlns="http://www.w3.org/2000/svg">
<mask id="mask0_1328_42801" style="mask-type:alpha" maskUnits="userSpaceOnUse" x="0" y="0" width="24" height="24">
<rect width="24" height="24" fill="#D9D9D9"/>
</mask>
<g mask="url(#mask0_1328_42801)">
<path d="M12.0361 17.6157C12.3068 17.6157 12.5364 17.5223 12.7249 17.3353C12.9133 17.1484 13.0076 16.9195 13.0076 16.6488C13.0076 16.378 12.9141 16.1484 12.7272 15.96C12.5402 15.7715 12.3114 15.6773 12.0406 15.6773C11.7699 15.6773 11.5403 15.7708 11.3518 15.9577C11.1634 16.1447 11.0691 16.3735 11.0691 16.6442C11.0691 16.915 11.1626 17.1446 11.3496 17.333C11.5365 17.5215 11.7653 17.6157 12.0361 17.6157ZM12.0085 21.1003C10.7566 21.1003 9.57759 20.8635 8.47145 20.3898C7.3653 19.9162 6.39712 19.2644 5.5669 18.4346C4.73667 17.6047 4.08461 16.6374 3.61073 15.5324C3.13684 14.4275 2.8999 13.2469 2.8999 11.9906C2.8999 10.7343 3.13674 9.55724 3.6104 8.45944C4.08407 7.36162 4.73582 6.39761 5.56565 5.56739C6.3955 4.73716 7.36289 4.0851 8.46783 3.61122C9.57276 3.13733 10.7534 2.90039 12.0097 2.90039C13.266 2.90039 14.443 3.13723 15.5408 3.61089C16.6386 4.08456 17.6026 4.73631 18.4329 5.56614C19.2631 6.39599 19.9151 7.36143 20.389 8.46247C20.8629 9.5635 21.0999 10.7399 21.0999 11.9918C21.0999 13.2437 20.863 14.4227 20.3894 15.5288C19.9157 16.6349 19.2639 17.6031 18.4341 18.4333C17.6043 19.2636 16.6388 19.9156 15.5378 20.3895C14.4367 20.8634 13.2603 21.1003 12.0085 21.1003ZM11.9999 19.8004C14.1665 19.8004 16.0082 19.042 17.5249 17.5254C19.0415 16.0087 19.7999 14.167 19.7999 12.0004C19.7999 9.8337 19.0415 7.99203 17.5249 6.47537C16.0082 4.9587 14.1665 4.20037 11.9999 4.20037C9.83321 4.20037 7.99154 4.9587 6.47488 6.47537C4.95821 7.99203 4.19988 9.8337 4.19988 12.0004C4.19988 14.167 4.95821 16.0087 6.47488 17.5254C7.99154 19.042 9.83321 19.8004 11.9999 19.8004ZM12.0615 7.71959C12.5281 7.71959 12.9319 7.86654 13.273 8.16044C13.614 8.45434 13.7845 8.82172 13.7845 9.26257C13.7845 9.63393 13.681 9.96448 13.4739 10.2542C13.2669 10.544 13.0249 10.8055 12.748 11.0388C12.385 11.3609 12.0612 11.7234 11.7767 12.1265C11.4922 12.5296 11.3486 12.9767 11.3461 13.4677C11.3396 13.6497 11.4002 13.794 11.5279 13.9004C11.6555 14.0068 11.8044 14.06 11.9745 14.06C12.1568 14.06 12.3105 14.0084 12.4355 13.9052C12.5604 13.802 12.6415 13.6658 12.6787 13.4965C12.762 13.1363 12.9124 12.819 13.1297 12.5447C13.347 12.2704 13.5824 12.0095 13.8359 11.7621C14.2003 11.4068 14.5018 11.0112 14.7402 10.5751C14.9787 10.1389 15.0979 9.67111 15.0979 9.17154C15.0979 8.37924 14.8024 7.71995 14.2114 7.19367C13.6204 6.66738 12.9131 6.40424 12.0897 6.40424C11.5016 6.40424 10.9525 6.54014 10.4422 6.81194C9.93195 7.08373 9.51203 7.46607 9.18243 7.95899C9.07741 8.10966 9.04953 8.27488 9.09878 8.45464C9.14803 8.63439 9.261 8.76038 9.4377 8.83262C9.62019 8.91753 9.79924 8.92986 9.97488 8.86959C10.1505 8.80934 10.2973 8.7164 10.4153 8.59077C10.6178 8.3446 10.8588 8.13787 11.1383 7.97057C11.4178 7.80325 11.7255 7.71959 12.0615 7.71959Z" fill="currentColor"/>
</g>
</svg>
