<svg width="24" height="24" viewBox="0 0 24 24" fill="none" xmlns="http://www.w3.org/2000/svg">
<rect width="24" height="24" rx="12" fill="#0A66C2"/>
<path d="M9.24081 16.8622V10.3791H7.08784V16.8622H9.24103H9.24081ZM8.16477 9.49412C8.9154 9.49412 9.38272 8.99629 9.38272 8.37415C9.36867 7.73784 8.9154 7.25391 8.17905 7.25391C7.44219 7.25391 6.96094 7.73784 6.96094 8.3741C6.96094 8.99624 7.42808 9.49406 8.15067 9.49406H8.1646L8.16477 9.49412ZM10.4325 16.8622H12.5853V13.2422C12.5853 13.0486 12.5994 12.8546 12.6562 12.7164C12.8118 12.3291 13.166 11.9282 13.7609 11.9282C14.5398 11.9282 14.8515 12.5227 14.8515 13.3943V16.8622H17.0043V13.145C17.0043 11.1538 15.9423 10.2271 14.5258 10.2271C13.3645 10.2271 12.8545 10.8768 12.5711 11.3193H12.5855V10.3793H10.4326C10.4607 10.9875 10.4324 16.8624 10.4324 16.8624L10.4325 16.8622Z" fill="white"/>
</svg>
