<svg width="24" height="24" viewBox="0 0 24 24" fill="none" xmlns="http://www.w3.org/2000/svg">
<mask id="mask0_1328_40657" style="mask-type:alpha" maskUnits="userSpaceOnUse" x="0" y="0" width="24" height="24">
<rect width="24" height="24" fill="#D9D9D9"/>
</mask>
<g mask="url(#mask0_1328_40657)">
<path d="M8.5749 14.7158C8.80054 15.3581 9.16015 15.8978 9.65375 16.335C10.1473 16.7722 10.7102 17.076 11.3422 17.2465V17.7754C11.3422 17.9574 11.4063 18.1084 11.5345 18.2282C11.6627 18.3481 11.8178 18.408 11.9999 18.408C12.1819 18.408 12.3329 18.3439 12.4528 18.2157C12.5726 18.0875 12.6326 17.9324 12.6326 17.7504V17.2715C13.3915 17.1831 14.0521 16.8667 14.6143 16.3225C15.1765 15.7783 15.4576 15.1376 15.4576 14.4004C15.4576 13.6504 15.222 13.0311 14.7508 12.5427C14.2797 12.0542 13.5691 11.635 12.6191 11.285C11.5511 10.8927 10.8739 10.5609 10.5874 10.2898C10.3008 10.0186 10.1576 9.6555 10.1576 9.20037C10.1576 8.82857 10.3258 8.5119 10.6624 8.25037C10.9989 7.98882 11.4197 7.85804 11.9249 7.85804C12.3787 7.85804 12.7903 7.96413 13.1595 8.17632C13.5287 8.3885 13.7909 8.67984 13.946 9.05034L15.0556 8.57922C14.83 8.0805 14.5059 7.67088 14.0835 7.35037C13.6611 7.02987 13.1774 6.82282 12.6326 6.72922V6.22537C12.6326 6.04332 12.5726 5.89236 12.4528 5.77249C12.3329 5.65262 12.1819 5.59269 11.9999 5.59269C11.8178 5.59269 11.6669 5.65262 11.547 5.77249C11.4271 5.89236 11.3672 6.04332 11.3672 6.22537V6.75422C10.598 6.90165 9.99316 7.20165 9.55278 7.65422C9.11239 8.10678 8.8922 8.6305 8.8922 9.22537C8.8922 9.94332 9.14477 10.552 9.6499 11.0513C10.155 11.5507 10.98 12.0016 12.1249 12.4042C12.8877 12.6773 13.4303 12.9686 13.7528 13.2782C14.0752 13.5879 14.2364 13.9619 14.2364 14.4004C14.2364 14.9106 14.031 15.3244 13.6201 15.6417C13.2092 15.959 12.7374 16.1177 12.2047 16.1177C11.6387 16.1177 11.1335 15.936 10.6893 15.5725C10.2451 15.209 9.92872 14.7517 9.74025 14.2004L8.5749 14.7158ZM12.0016 21.1003C10.7543 21.1003 9.57759 20.8635 8.47145 20.3898C7.3653 19.9162 6.39712 19.2644 5.5669 18.4346C4.73667 17.6047 4.08461 16.637 3.61073 15.5314C3.13684 14.4257 2.8999 13.2493 2.8999 12.002C2.8999 10.7381 3.13674 9.55724 3.6104 8.45944C4.08407 7.36162 4.73582 6.39761 5.56565 5.56739C6.3955 4.73716 7.36324 4.0851 8.46888 3.61122C9.57449 3.13733 10.7509 2.90039 11.9982 2.90039C13.2621 2.90039 14.443 3.13723 15.5408 3.61089C16.6386 4.08456 17.6026 4.73631 18.4329 5.56614C19.2631 6.39599 19.9151 7.35957 20.389 8.45687C20.8629 9.55415 21.0999 10.7348 21.0999 11.9987C21.0999 13.246 20.863 14.4227 20.3894 15.5288C19.9157 16.6349 19.2639 17.6031 18.4341 18.4333C17.6043 19.2636 16.6407 19.9156 15.5434 20.3895C14.4461 20.8634 13.2655 21.1003 12.0016 21.1003ZM11.9999 19.8004C14.1665 19.8004 16.0082 19.042 17.5249 17.5254C19.0415 16.0087 19.7999 14.167 19.7999 12.0004C19.7999 9.8337 19.0415 7.99203 17.5249 6.47537C16.0082 4.9587 14.1665 4.20037 11.9999 4.20037C9.83321 4.20037 7.99154 4.9587 6.47488 6.47537C4.95821 7.99203 4.19988 9.8337 4.19988 12.0004C4.19988 14.167 4.95821 16.0087 6.47488 17.5254C7.99154 19.042 9.83321 19.8004 11.9999 19.8004Z" fill="currentColor"/>
</g>
</svg>
