<svg width="24" height="24" viewBox="0 0 24 24" fill="none" xmlns="http://www.w3.org/2000/svg">
<path d="M22.5396 6.42C22.4208 5.97447 22.1795 5.56985 21.8405 5.25059C21.5015 4.93134 21.0769 4.70897 20.6166 4.608C18.88 4.166 11.9933 4.166 11.9933 4.166C11.9933 4.166 5.107 4.166 3.3703 4.608C2.91001 4.70897 2.48536 4.93134 2.14638 5.25059C1.8074 5.56985 1.56607 5.97447 1.44727 6.42C1.0273 8.194 1.0273 11.896 1.0273 11.896C1.0273 11.896 1.0273 15.598 1.44727 17.372C1.56607 17.8175 1.8074 18.2222 2.14638 18.5414C2.48536 18.8607 2.91001 19.083 3.3703 19.184C5.107 19.626 11.9933 19.626 11.9933 19.626C11.9933 19.626 18.88 19.626 20.6166 19.184C21.0769 19.083 21.5015 18.8607 21.8405 18.5414C22.1795 18.2222 22.4208 17.8175 22.5396 17.372C22.9596 15.598 22.9596 11.896 22.9596 11.896C22.9596 11.896 22.9596 8.194 22.5396 6.42Z" fill="#FF0000"/>
<path d="M9.74609 15.521V8.271L15.8141 11.896L9.74609 15.521Z" fill="white"/>
</svg>
