<svg width="24" height="24" viewBox="0 0 24 24" fill="none" xmlns="http://www.w3.org/2000/svg">
<mask id="mask0_1328_55111" style="mask-type:alpha" maskUnits="userSpaceOnUse" x="0" y="0" width="24" height="24">
<rect width="24" height="24" fill="#D9D9D9"/>
</mask>
<g mask="url(#mask0_1328_55111)">
<path d="M3.19227 18.5C2.68727 18.5 2.25977 18.325 1.90977 17.975C1.55977 17.625 1.38477 17.1974 1.38477 16.6923V7.30775C1.38477 6.80258 1.55977 6.375 1.90977 6.025C2.25977 5.675 2.68727 5.5 3.19227 5.5H12.577C13.082 5.5 13.5095 5.675 13.8595 6.025C14.2095 6.375 14.3845 6.80258 14.3845 7.30775V16.6923C14.3845 17.1974 14.2095 17.625 13.8595 17.975C13.5095 18.325 13.082 18.5 12.577 18.5H3.19227ZM3.19227 17H12.577C12.6538 17 12.7243 16.9679 12.7885 16.9038C12.8525 16.8398 12.8845 16.7693 12.8845 16.6923V7.30775C12.8845 7.23075 12.8525 7.16025 12.7885 7.09625C12.7243 7.03208 12.6538 7 12.577 7H3.19227C3.11543 7 3.04493 7.03208 2.98077 7.09625C2.9166 7.16025 2.88452 7.23075 2.88452 7.30775V16.6923C2.88452 16.7693 2.9166 16.8398 2.98077 16.9038C3.04493 16.9679 3.11543 17 3.19227 17ZM7.38452 14.1923L6.34627 12.8192C6.2526 12.6987 6.13202 12.6411 5.98452 12.6463C5.83718 12.6513 5.71668 12.7141 5.62302 12.8348L4.63277 14.1615C4.5186 14.3153 4.50927 14.4743 4.60477 14.6385C4.70027 14.8025 4.83843 14.8845 5.01927 14.8845H10.75C10.9308 14.8845 11.0648 14.8025 11.152 14.6385C11.2392 14.4743 11.2257 14.3153 11.1115 14.1615L9.64627 12.1693C9.5526 12.0488 9.43202 11.9885 9.28452 11.9885C9.13718 11.9885 9.01668 12.0488 8.92302 12.1693L7.38452 14.1923ZM17.75 18.5C17.5372 18.5 17.359 18.4282 17.2155 18.2845C17.0718 18.141 17 17.9628 17 17.75V6.25C17 6.03717 17.0718 5.859 17.2155 5.7155C17.359 5.57183 17.5372 5.5 17.75 5.5C17.9628 5.5 18.141 5.57183 18.2845 5.7155C18.4282 5.859 18.5 6.03717 18.5 6.25V17.75C18.5 17.9628 18.4282 18.141 18.2845 18.2845C18.141 18.4282 17.9628 18.5 17.75 18.5ZM21.8653 18.5C21.6526 18.5 21.4744 18.4282 21.3308 18.2845C21.1873 18.141 21.1155 17.9628 21.1155 17.75V6.25C21.1155 6.03717 21.1873 5.859 21.3308 5.7155C21.4744 5.57183 21.6526 5.5 21.8653 5.5C22.0781 5.5 22.2563 5.57183 22.4 5.7155C22.5435 5.859 22.6153 6.03717 22.6153 6.25V17.75C22.6153 17.9628 22.5435 18.141 22.4 18.2845C22.2563 18.4282 22.0781 18.5 21.8653 18.5Z" fill="currentColor"/>
</g>
</svg>
