<svg width="20" height="20" viewBox="0 0 20 20" fill="none" xmlns="http://www.w3.org/2000/svg">
<mask id="mask0_1029_42311" style="mask-type:alpha" maskUnits="userSpaceOnUse" x="0" y="0" width="20" height="20">
<rect width="20" height="20" fill="#D9D9D9"/>
</mask>
<g mask="url(#mask0_1029_42311)">
<path d="M3.7565 15.5831C3.39111 15.5831 3.07647 15.4512 2.81258 15.1873C2.54869 14.9234 2.41675 14.6088 2.41675 14.2434V5.75625C2.41675 5.39087 2.54869 5.07623 2.81258 4.81234C3.07647 4.54845 3.39111 4.4165 3.7565 4.4165H16.2436C16.6187 4.4165 16.9358 4.54845 17.1948 4.81234C17.4539 5.07623 17.5834 5.39087 17.5834 5.75625V14.2434C17.5834 14.6088 17.4539 14.9234 17.1948 15.1873C16.9358 15.4512 16.6187 15.5831 16.2436 15.5831H3.7565ZM16.5001 6.80588L10.3638 10.4181C10.3063 10.4544 10.2471 10.483 10.186 10.5038C10.1249 10.5246 10.0629 10.535 10.0001 10.535C9.93062 10.535 9.87212 10.5246 9.82458 10.5038C9.77704 10.483 9.72179 10.4565 9.65883 10.4243L3.50006 6.80588V14.2434C3.50006 14.3182 3.5241 14.3796 3.57219 14.4277C3.62027 14.4758 3.68171 14.4998 3.7565 14.4998H16.2436C16.3184 14.4998 16.3799 14.4758 16.4279 14.4277C16.476 14.3796 16.5001 14.3182 16.5001 14.2434V6.80588ZM10.0001 9.22898L16.351 5.49982H3.66994L10.0001 9.22898ZM3.50006 6.53703V6.70844V5.88923V5.90365V5.87721V6.71021V6.53884V14.4998V6.53703Z" fill="#303030"/>
</g>
</svg>
