<svg width="12" height="15" viewBox="0 0 12 15" fill="none" xmlns="http://www.w3.org/2000/svg">
<path d="M6.89514 15C6.81297 15 6.74162 14.9715 6.68108 14.9145C6.62487 14.8619 6.59027 14.7896 6.5773 14.6975C6.47784 13.9785 6.36973 13.3735 6.25297 12.8825C6.14054 12.3959 5.98919 11.9947 5.79892 11.6791C5.60865 11.3634 5.35784 11.1114 5.04649 10.9228C4.73946 10.7343 4.34595 10.5831 3.86595 10.4691C3.39027 10.3507 2.80216 10.2455 2.10162 10.1534C2.00649 10.1447 1.93081 10.1096 1.87459 10.0482C1.81838 9.98685 1.79027 9.91232 1.79027 9.82464C1.79027 9.74134 1.81838 9.66901 1.87459 9.60763C1.93081 9.54625 2.00649 9.51118 2.10162 9.50241C2.80216 9.4235 3.39243 9.32924 3.87243 9.21964C4.35243 9.11004 4.74811 8.95879 5.05946 8.76589C5.37081 8.57299 5.62162 8.31653 5.81189 7.99649C6.00216 7.67646 6.15351 7.27093 6.26595 6.77992C6.3827 6.28452 6.48649 5.67514 6.5773 4.95178C6.59027 4.86409 6.62487 4.79395 6.68108 4.74134C6.74162 4.68435 6.81297 4.65585 6.89514 4.65585C6.98162 4.65585 7.05297 4.68435 7.10919 4.74134C7.16541 4.79395 7.20216 4.86409 7.21946 4.95178C7.31027 5.67514 7.41189 6.28452 7.52432 6.77992C7.64108 7.27093 7.79243 7.67646 7.97838 7.99649C8.16865 8.31653 8.41946 8.57299 8.73081 8.76589C9.04216 8.95879 9.43784 9.11004 9.91784 9.21964C10.3978 9.32924 10.9903 9.4235 11.6951 9.50241C11.7859 9.51118 11.8595 9.54625 11.9157 9.60763C11.9719 9.66901 12 9.74134 12 9.82464C12 9.91232 11.9719 9.98685 11.9157 10.0482C11.8595 10.1096 11.7859 10.1447 11.6951 10.1534C10.9903 10.2324 10.3978 10.3266 9.91784 10.4362C9.43784 10.5458 9.04216 10.6971 8.73081 10.89C8.41946 11.0785 8.16865 11.3327 7.97838 11.6528C7.79243 11.9728 7.64108 12.3805 7.52432 12.8759C7.41189 13.3713 7.31027 13.9785 7.21946 14.6975C7.20216 14.7896 7.16541 14.8619 7.10919 14.9145C7.05297 14.9715 6.98162 15 6.89514 15ZM2.4973 7.72687C2.36757 7.72687 2.29405 7.65454 2.27676 7.50986C2.22486 7.07146 2.16865 6.72731 2.10811 6.47742C2.05189 6.22753 1.95892 6.04121 1.82919 5.91846C1.70378 5.79132 1.51351 5.69487 1.25838 5.62911C1.00757 5.56335 0.661622 5.49321 0.220541 5.41868C0.0735135 5.39676 0 5.32223 0 5.19509C0 5.07234 0.0648649 5 0.194595 4.97808C0.64 4.8904 0.99027 4.81368 1.24541 4.74792C1.50054 4.67777 1.69297 4.58132 1.8227 4.45857C1.95243 4.33582 2.04757 4.15388 2.10811 3.91276C2.16865 3.66725 2.22486 3.3253 2.27676 2.88689C2.29405 2.74222 2.36757 2.66988 2.4973 2.66988C2.62703 2.66988 2.70054 2.74003 2.71784 2.88032C2.77405 3.3231 2.83027 3.67164 2.88649 3.92591C2.94703 4.18018 3.04 4.37308 3.16541 4.5046C3.29514 4.63174 3.48757 4.726 3.7427 4.78737C3.99784 4.84875 4.35027 4.91232 4.8 4.97808C4.85622 4.98246 4.90162 5.00438 4.93622 5.04384C4.97514 5.0833 4.99459 5.13371 4.99459 5.19509C4.99459 5.31784 4.92973 5.39237 4.8 5.41868C4.35027 5.50636 3.99784 5.58527 3.7427 5.65541C3.49189 5.72118 3.30162 5.81762 3.17189 5.94476C3.04649 6.06751 2.95351 6.25164 2.89297 6.49715C2.83243 6.74266 2.77405 7.08461 2.71784 7.52302C2.70919 7.58001 2.68541 7.62823 2.64649 7.66769C2.60757 7.70715 2.55784 7.72687 2.4973 7.72687ZM5.63676 3.20254C5.55459 3.20254 5.50703 3.1587 5.49405 3.07102C5.44216 2.8036 5.39676 2.59316 5.35784 2.43972C5.32324 2.28628 5.26703 2.1701 5.18919 2.09119C5.11568 2.00789 5.00108 1.94213 4.84541 1.89391C4.68973 1.84568 4.47135 1.79746 4.19027 1.74923C4.10378 1.7317 4.06054 1.68128 4.06054 1.59798C4.06054 1.51907 4.10378 1.47085 4.19027 1.45331C4.47135 1.4007 4.68973 1.35248 4.84541 1.30864C5.00108 1.26041 5.11568 1.19684 5.18919 1.11793C5.26703 1.03463 5.32324 0.916265 5.35784 0.762823C5.39676 0.609382 5.44216 0.398948 5.49405 0.131521C5.50703 0.0438404 5.55459 0 5.63676 0C5.71459 0 5.76216 0.0438404 5.77946 0.131521C5.82703 0.398948 5.87027 0.609382 5.90919 0.762823C5.94811 0.916265 6.00432 1.03463 6.07784 1.11793C6.15568 1.19684 6.27243 1.26041 6.42811 1.30864C6.58378 1.35248 6.80216 1.4007 7.08324 1.45331C7.16973 1.47085 7.21297 1.51907 7.21297 1.59798C7.21297 1.68128 7.16973 1.7317 7.08324 1.74923C6.80216 1.79746 6.58378 1.84568 6.42811 1.89391C6.27243 1.94213 6.15568 2.00789 6.07784 2.09119C6.00432 2.1701 5.94811 2.28628 5.90919 2.43972C5.87027 2.59316 5.82703 2.8036 5.77946 3.07102C5.76216 3.1587 5.71459 3.20254 5.63676 3.20254Z" fill="#6834B7"/>
</svg>
