<svg width="24" height="24" viewBox="0 0 24 24" fill="none" xmlns="http://www.w3.org/2000/svg">
<mask id="mask0_1328_40626" style="mask-type:alpha" maskUnits="userSpaceOnUse" x="0" y="0" width="24" height="24">
<rect width="24" height="24" fill="#D9D9D9"/>
</mask>
<g mask="url(#mask0_1328_40626)">
<path d="M11.9946 21.1774C11.5429 21.1774 11.1549 21.022 10.8306 20.7111C10.5062 20.4003 10.3281 20.0198 10.2961 19.5696H13.7036C13.6716 20.0248 13.4916 20.4066 13.1638 20.7149C12.8358 21.0232 12.4461 21.1774 11.9946 21.1774ZM8.6498 17.9849V16.6849H15.3498V17.9849H8.6498ZM8.17855 15.1004C7.24789 14.4991 6.53547 13.7106 6.0413 12.7349C5.54697 11.7594 5.2998 10.7146 5.2998 9.60039C5.2998 7.73506 5.95014 6.15206 7.2508 4.85139C8.55147 3.55072 10.1345 2.90039 11.9998 2.90039C13.8651 2.90039 15.4481 3.55072 16.7488 4.85139C18.0495 6.15206 18.6998 7.73506 18.6998 9.60039C18.6998 10.7146 18.4526 11.7594 17.9583 12.7349C17.4641 13.7106 16.7517 14.4991 15.8211 15.1004H8.17855ZM8.5998 13.8004H15.3998C16.0331 13.2837 16.5248 12.6587 16.8748 11.9254C17.2248 11.1921 17.3998 10.4171 17.3998 9.60039C17.3998 8.09489 16.8767 6.81856 15.8306 5.77139C14.7844 4.72406 13.5094 4.20039 12.0056 4.20039C10.5017 4.20039 9.2248 4.72406 8.1748 5.77139C7.1248 6.81856 6.5998 8.09489 6.5998 9.60039C6.5998 10.4171 6.7748 11.1921 7.1248 11.9254C7.4748 12.6587 7.96647 13.2837 8.5998 13.8004Z" fill="currentColor"/>
</g>
</svg>
