<svg width="24" height="24" viewBox="0 0 24 24" fill="none" xmlns="http://www.w3.org/2000/svg">
<mask id="mask0_1328_55575" style="mask-type:alpha" maskUnits="userSpaceOnUse" x="0" y="0" width="24" height="24">
<rect width="24" height="24" fill="#D9D9D9"/>
</mask>
<g mask="url(#mask0_1328_55575)">
<path d="M4.13248 20.1497C3.36326 20.1497 2.70943 19.8805 2.17098 19.3421C1.63251 18.8036 1.36328 18.1497 1.36328 17.3805C1.36328 16.6113 1.63251 15.9574 2.17096 15.419C2.70942 14.8805 3.36326 14.6113 4.13248 14.6113C4.38013 14.6113 4.62089 14.6379 4.85476 14.6911C5.08864 14.7443 5.31199 14.8305 5.52481 14.9498L9.50558 9.50117C9.22225 9.19766 9.00558 8.85146 8.85558 8.46257C8.70558 8.07369 8.63058 7.66237 8.63058 7.2286C8.63058 6.2863 8.95655 5.48919 9.60848 4.83727C10.2604 4.18534 11.0575 3.85938 11.9998 3.85938C12.9421 3.85938 13.7392 4.18534 14.3911 4.83727C15.0431 5.48919 15.369 6.28998 15.369 7.23965C15.369 7.66852 15.294 8.07677 15.144 8.46442C14.994 8.85207 14.7774 9.19766 14.494 9.50117L18.4652 14.9594C18.678 14.8401 18.9024 14.7523 19.1384 14.6959C19.3743 14.6395 19.6173 14.6113 19.8671 14.6113C20.6363 14.6113 21.2902 14.8805 21.8287 15.419C22.3671 15.9574 22.6363 16.6113 22.6363 17.3805C22.6363 18.1497 22.3671 18.8036 21.8287 19.3421C21.2902 19.8805 20.6363 20.1497 19.8671 20.1497C19.0979 20.1497 18.444 19.8805 17.9056 19.3421C17.3671 18.8036 17.0979 18.1497 17.0979 17.3805C17.0979 17.101 17.1409 16.843 17.2268 16.6065C17.3127 16.3699 17.4268 16.1433 17.5691 15.9267L13.4325 10.2382C13.3081 10.3228 13.1823 10.3853 13.055 10.4257C12.9277 10.4661 12.7926 10.4958 12.6498 10.5148V14.6984C13.2664 14.8339 13.7738 15.1472 14.1719 15.6382C14.57 16.1292 14.769 16.7068 14.769 17.3709C14.769 18.1401 14.4998 18.794 13.9613 19.3324C13.4229 19.8709 12.769 20.1401 11.9998 20.1401C11.2306 20.1401 10.5767 19.8709 10.0383 19.3324C9.49981 18.794 9.23058 18.1401 9.23058 17.3709C9.23058 16.7068 9.42962 16.1276 9.82771 15.6334C10.2258 15.1392 10.7332 14.8261 11.3498 14.694V10.5148C11.201 10.4958 11.0603 10.4661 10.9276 10.4257C10.795 10.3853 10.6748 10.3228 10.5671 10.2382L6.44593 15.9267C6.58825 16.1433 6.69979 16.3699 6.78056 16.6065C6.86132 16.843 6.90171 17.101 6.90171 17.3805C6.90171 18.1497 6.63248 18.8036 6.09403 19.3421C5.55556 19.8805 4.90171 20.1497 4.13248 20.1497ZM4.13248 18.8498C4.54301 18.8498 4.89052 18.7075 5.17501 18.423C5.45951 18.1385 5.60176 17.791 5.60176 17.3805C5.60176 16.97 5.45951 16.6225 5.17501 16.338C4.89052 16.0535 4.54301 15.9113 4.13248 15.9113C3.72196 15.9113 3.37446 16.0535 3.08998 16.338C2.80548 16.6225 2.66323 16.97 2.66323 17.3805C2.66323 17.791 2.80548 18.1385 3.08998 18.423C3.37446 18.7075 3.72196 18.8498 4.13248 18.8498ZM11.9998 18.8401C12.4103 18.8401 12.7578 18.6979 13.0423 18.4134C13.3268 18.1289 13.4691 17.7814 13.4691 17.3709C13.4691 16.9604 13.3268 16.6129 13.0423 16.3284C12.7578 16.0439 12.4103 15.9017 11.9998 15.9017C11.5893 15.9017 11.2418 16.0439 10.9573 16.3284C10.6728 16.6129 10.5306 16.9604 10.5306 17.3709C10.5306 17.7814 10.6728 18.1289 10.9573 18.4134C11.2418 18.6979 11.5893 18.8401 11.9998 18.8401ZM19.8671 18.8498C20.2776 18.8498 20.6251 18.7075 20.9096 18.423C21.1941 18.1385 21.3364 17.791 21.3364 17.3805C21.3364 16.97 21.1941 16.6225 20.9096 16.338C20.6251 16.0535 20.2776 15.9113 19.8671 15.9113C19.4566 15.9113 19.1091 16.0535 18.8246 16.338C18.5401 16.6225 18.3979 16.97 18.3979 17.3805C18.3979 17.791 18.5401 18.1385 18.8246 18.423C19.1091 18.7075 19.4566 18.8498 19.8671 18.8498ZM12.0051 9.29785C12.5756 9.29785 13.0622 9.09472 13.465 8.68845C13.8677 8.28218 14.0691 7.7938 14.0691 7.2233C14.0691 6.65278 13.8659 6.16617 13.4597 5.76345C13.0534 5.36072 12.565 5.15935 11.9945 5.15935C11.424 5.15935 10.9374 5.36248 10.5347 5.76875C10.1319 6.17502 9.93056 6.6634 9.93056 7.2339C9.93056 7.80442 10.1337 8.29103 10.54 8.69375C10.9462 9.09648 11.4346 9.29785 12.0051 9.29785Z" fill="currentColor"/>
</g>
</svg>
