<svg width="24" height="24" viewBox="0 0 24 24" fill="none" xmlns="http://www.w3.org/2000/svg">
<mask id="mask0_1328_42865" style="mask-type:alpha" maskUnits="userSpaceOnUse" x="0" y="0" width="24" height="24">
<rect width="24" height="24" fill="#D9D9D9"/>
</mask>
<g mask="url(#mask0_1328_42865)">
<path d="M3.19824 16.7854C3.19824 16.407 3.28959 16.073 3.47229 15.7833C3.65498 15.4937 3.91024 15.2531 4.23809 15.0615C5.05511 14.58 5.91489 14.2008 6.81744 13.9239C7.72001 13.647 8.74693 13.5085 9.89822 13.5085C11.0495 13.5085 12.0764 13.647 12.979 13.9239C13.8815 14.2008 14.7413 14.58 15.5583 15.0615C15.8862 15.2531 16.1415 15.4937 16.3241 15.7833C16.5068 16.073 16.5982 16.407 16.5982 16.7854V17.1892C16.5982 17.5368 16.4699 17.8435 16.2134 18.1095C15.9568 18.3754 15.645 18.5084 15.278 18.5084H4.51037C4.1433 18.5084 3.83285 18.3802 3.57902 18.1239C3.32517 17.8676 3.19824 17.556 3.19824 17.1892V16.7854ZM19.4828 18.5084H18.0866C18.179 18.2956 18.254 18.079 18.3116 17.8585C18.3693 17.6381 18.3982 17.415 18.3982 17.1892V16.8623C18.3982 16.2392 18.2791 15.6678 18.041 15.1481C17.8029 14.6283 17.4886 14.2055 17.0982 13.8796C17.5687 14.013 18.0344 14.1761 18.4953 14.3691C18.9562 14.562 19.4103 14.7931 19.8578 15.0623C20.1411 15.2213 20.3693 15.4643 20.5424 15.7913C20.7155 16.1183 20.802 16.4753 20.802 16.8623V17.1892C20.802 17.556 20.6738 17.8676 20.4175 18.1239C20.1611 18.3802 19.8496 18.5084 19.4828 18.5084ZM9.89822 11.693C9.03573 11.693 8.30345 11.392 7.70137 10.7899C7.09928 10.1879 6.79824 9.45558 6.79824 8.5931C6.79824 7.7306 7.09928 6.99831 7.70137 6.39625C8.30345 5.79416 9.03573 5.49312 9.89822 5.49312C10.7607 5.49312 11.493 5.79416 12.0951 6.39625C12.6971 6.99831 12.9982 7.7306 12.9982 8.5931C12.9982 9.45558 12.6971 10.1879 12.0951 10.7899C11.493 11.392 10.7607 11.693 9.89822 11.693ZM16.9327 8.5931C16.9327 9.45558 16.6317 10.1879 16.0296 10.7899C15.4275 11.392 14.6953 11.693 13.8328 11.693C13.77 11.693 13.7347 11.6969 13.727 11.7046C13.7193 11.7123 13.6841 11.7091 13.6213 11.695C13.9823 11.2709 14.2687 10.7991 14.4805 10.2796C14.6923 9.76007 14.7982 9.19751 14.7982 8.5919C14.7982 7.9863 14.6902 7.42612 14.4741 6.91137C14.2581 6.39664 13.9738 5.92325 13.6213 5.4912C13.6649 5.48991 13.7001 5.48991 13.727 5.4912C13.7539 5.49248 13.7892 5.49312 13.8328 5.49312C14.6953 5.49312 15.4275 5.79416 16.0296 6.39625C16.6317 6.99831 16.9327 7.7306 16.9327 8.5931ZM4.49822 17.2084H15.2982V16.7854C15.2982 16.6519 15.2666 16.5346 15.2034 16.4336C15.1401 16.3325 15.0288 16.2382 14.8694 16.1507C14.163 15.7264 13.3989 15.3966 12.5771 15.1613C11.7553 14.9261 10.8623 14.8084 9.89822 14.8084C8.93412 14.8084 8.04117 14.9219 7.21937 15.1488C6.39758 15.3758 5.63348 15.7097 4.92707 16.1507C4.76765 16.2363 4.65632 16.3279 4.59307 16.4255C4.52983 16.5231 4.49822 16.6423 4.49822 16.783V17.2084ZM9.90352 10.3931C10.4 10.3931 10.8232 10.2163 11.1732 9.86277C11.5232 9.50924 11.6982 9.08424 11.6982 8.58777C11.6982 8.09132 11.5215 7.6681 11.1679 7.3181C10.8144 6.9681 10.3894 6.7931 9.89292 6.7931C9.39645 6.7931 8.97322 6.96986 8.62322 7.3234C8.27322 7.67695 8.09822 8.10195 8.09822 8.5984C8.09822 9.09486 8.27498 9.5181 8.62852 9.8681C8.98207 10.2181 9.40707 10.3931 9.90352 10.3931Z" fill="currentColor"/>
</g>
</svg>
