<svg width="24" height="24" viewBox="0 0 24 24" fill="none" xmlns="http://www.w3.org/2000/svg">
<mask id="mask0_1328_2088" style="mask-type:alpha" maskUnits="userSpaceOnUse" x="0" y="0" width="24" height="24">
<rect width="24" height="24" fill="#D9D9D9"/>
</mask>
<g mask="url(#mask0_1328_2088)">
<path d="M1.2654 17.7892C1.04853 17.7892 0.86675 17.7159 0.72005 17.5692C0.57335 17.4225 0.5 17.2407 0.5 17.0239V16.67C0.5 15.8713 0.855775 15.2415 1.56732 14.7806C2.27886 14.3197 3.24295 14.0893 4.4596 14.0893C4.67755 14.0893 4.90512 14.1034 5.1423 14.1316C5.37948 14.1598 5.62628 14.1989 5.88268 14.2489C5.63781 14.5438 5.44742 14.8755 5.31152 15.2441C5.17564 15.6127 5.1077 15.9779 5.1077 16.3397V17.7892H1.2654ZM7.30782 17.7892C7.07582 17.7892 6.88319 17.7122 6.72992 17.5581C6.57664 17.4041 6.5 17.2132 6.5 16.9854V16.5143C6.5 16.1151 6.60642 15.7503 6.81925 15.4197C7.03207 15.0892 7.31924 14.8463 7.68077 14.6912C8.37564 14.3694 9.08108 14.1239 9.7971 13.9547C10.5131 13.7854 11.2422 13.7008 11.9844 13.7008C12.7409 13.7008 13.4772 13.7854 14.1932 13.9547C14.9092 14.1239 15.6147 14.3694 16.3096 14.6912C16.6711 14.8463 16.9599 15.0892 17.1759 15.4197C17.3919 15.7503 17.5 16.1151 17.5 16.5143V16.9854C17.5 17.2132 17.4229 17.4041 17.2688 17.5581C17.1148 17.7122 16.9238 17.7892 16.6961 17.7892H7.30782ZM18.8923 17.7892V16.3236C18.8923 15.9328 18.8227 15.563 18.6836 15.2143C18.5445 14.8656 18.3525 14.5438 18.1076 14.2489C18.4038 14.1989 18.6663 14.1598 18.8951 14.1316C19.124 14.1034 19.3423 14.0893 19.55 14.0893C20.7666 14.0893 21.7291 14.3213 22.4375 14.7854C23.1458 15.2495 23.5 15.8777 23.5 16.67V17.0239C23.5 17.2407 23.4266 17.4225 23.2799 17.5692C23.1332 17.7159 22.9514 17.7892 22.7346 17.7892H18.8923ZM7.8019 16.4893H16.1885V16.3835C16.1359 16.0296 15.6769 15.7107 14.8115 15.4268C13.9461 15.1428 13.009 15.0008 12 15.0008C10.991 15.0008 10.0538 15.1428 9.18842 15.4268C8.32304 15.7107 7.86087 16.0296 7.8019 16.3835V16.4893ZM4.45175 12.9181C4.03392 12.9181 3.67885 12.7712 3.38655 12.4772C3.09425 12.1833 2.9481 11.8299 2.9481 11.4171C2.9481 10.9999 3.09507 10.6435 3.389 10.348C3.68295 10.0525 4.03631 9.90469 4.44908 9.90469C4.86634 9.90469 5.22433 10.0505 5.52305 10.342C5.82177 10.6335 5.97112 10.9911 5.97112 11.4148C5.97112 11.826 5.82552 12.1794 5.5343 12.4749C5.24308 12.7704 4.88223 12.9181 4.45175 12.9181ZM19.5446 12.9181C19.1315 12.9181 18.7772 12.7701 18.4817 12.4742C18.1862 12.1783 18.0385 11.8269 18.0385 11.42C18.0385 11.0008 18.1864 10.6435 18.4823 10.348C18.7783 10.0525 19.1313 9.90469 19.5413 9.90469C19.9637 9.90469 20.3227 10.0505 20.6182 10.342C20.9137 10.6335 21.0615 10.9902 21.0615 11.4119C21.0615 11.8291 20.9161 12.1844 20.6254 12.4779C20.3347 12.7714 19.9744 12.9181 19.5446 12.9181ZM11.991 12.5008C11.279 12.5008 10.6699 12.2484 10.1635 11.7436C9.65705 11.2388 9.40385 10.6258 9.40385 9.90469C9.40385 9.18579 9.65625 8.57338 10.161 8.06747C10.6658 7.56155 11.2788 7.30859 12 7.30859C12.7189 7.30859 13.3313 7.56123 13.8372 8.06649C14.3431 8.57176 14.5961 9.18749 14.5961 9.91369C14.5961 10.6256 14.3435 11.2348 13.8382 11.7412C13.3329 12.2476 12.7172 12.5008 11.991 12.5008ZM12.0048 11.2009C12.3672 11.2009 12.6731 11.0747 12.9223 10.8222C13.1715 10.5698 13.2961 10.2623 13.2961 9.89989C13.2961 9.53746 13.1719 9.23163 12.9235 8.98239C12.6751 8.73316 12.3672 8.60854 12 8.60854C11.6407 8.60854 11.3349 8.73276 11.0825 8.98119C10.83 9.22963 10.7038 9.53746 10.7038 9.90469C10.7038 10.2639 10.83 10.5698 11.0825 10.8222C11.3349 11.0747 11.6423 11.2009 12.0048 11.2009Z" fill="currentColor"/>
</g>
</svg>
