<svg width="20" height="20" viewBox="0 0 20 20" fill="none" xmlns="http://www.w3.org/2000/svg">
<mask id="mask0_1029_42299" style="mask-type:alpha" maskUnits="userSpaceOnUse" x="0" y="0" width="20" height="20">
<rect width="20" height="20" fill="#D9D9D9"/>
</mask>
<g mask="url(#mask0_1029_42299)">
<path d="M6.74566 9.15365C6.92487 9.15365 7.07938 9.09021 7.20919 8.96334C7.33899 8.83645 7.40389 8.68341 7.40389 8.50421C7.40389 8.325 7.34046 8.1705 7.21358 8.04069C7.08669 7.91089 6.93365 7.84598 6.75446 7.84598C6.57525 7.84598 6.42074 7.90942 6.29094 8.0363C6.16113 8.16318 6.09623 8.31623 6.09623 8.49542C6.09623 8.67463 6.15966 8.82914 6.28654 8.95894C6.41343 9.08875 6.56647 9.15365 6.74566 9.15365ZM9.99566 9.15365C10.1749 9.15365 10.3294 9.09021 10.4592 8.96334C10.589 8.83645 10.6539 8.68341 10.6539 8.50421C10.6539 8.325 10.5905 8.1705 10.4636 8.04069C10.3367 7.91089 10.1837 7.84598 10.0045 7.84598C9.82525 7.84598 9.67074 7.90942 9.54094 8.0363C9.41113 8.16318 9.34623 8.31623 9.34623 8.49542C9.34623 8.67463 9.40967 8.82914 9.53654 8.95894C9.66343 9.08875 9.81647 9.15365 9.99566 9.15365ZM13.2457 9.15365C13.4249 9.15365 13.5794 9.09021 13.7092 8.96334C13.839 8.83645 13.9039 8.68341 13.9039 8.50421C13.9039 8.325 13.8405 8.1705 13.7136 8.04069C13.5867 7.91089 13.4337 7.84598 13.2545 7.84598C13.0752 7.84598 12.9207 7.90942 12.7909 8.0363C12.6611 8.16318 12.5962 8.31623 12.5962 8.49542C12.5962 8.67463 12.6597 8.82914 12.7865 8.95894C12.9134 9.08875 13.0665 9.15365 13.2457 9.15365ZM5.03212 14.5831L3.55381 16.0614C3.34278 16.2725 3.10052 16.3207 2.82702 16.206C2.55351 16.0914 2.41675 15.8849 2.41675 15.5863V3.75625C2.41675 3.38114 2.54626 3.06407 2.80529 2.80505C3.06432 2.54602 3.38139 2.4165 3.7565 2.4165H16.2436C16.6187 2.4165 16.9358 2.54602 17.1948 2.80505C17.4539 3.06407 17.5834 3.38114 17.5834 3.75625V13.2434C17.5834 13.6185 17.4539 13.9356 17.1948 14.1946C16.9358 14.4536 16.6187 14.5831 16.2436 14.5831H5.03212ZM4.58342 13.4998H16.2436C16.3077 13.4998 16.3665 13.4731 16.4199 13.4197C16.4734 13.3663 16.5001 13.3075 16.5001 13.2434V3.75625C16.5001 3.69214 16.4734 3.63337 16.4199 3.57994C16.3665 3.52653 16.3077 3.49982 16.2436 3.49982H3.7565C3.69239 3.49982 3.63362 3.52653 3.58019 3.57994C3.52677 3.63337 3.50006 3.69214 3.50006 3.75625V14.5912L4.58342 13.4998Z" fill="#303030"/>
</g>
</svg>
