<svg width="16" height="16" viewBox="0 0 16 16" fill="none" xmlns="http://www.w3.org/2000/svg">
<mask id="mask0_3079_29031" style="mask-type:alpha" maskUnits="userSpaceOnUse" x="0" y="0" width="16" height="16">
<rect width="16" height="16" fill="#D9D9D9"/>
</mask>
<g mask="url(#mask0_3079_29031)">
<path d="M7.99672 11.0333C8.11856 11.0333 8.22179 10.9918 8.3064 10.9087C8.39101 10.8257 8.43332 10.7228 8.43332 10.6V7.63332C8.43332 7.51055 8.39211 7.40764 8.30968 7.32458C8.22726 7.24153 8.12513 7.2 8.00328 7.2C7.88144 7.2 7.77821 7.24153 7.6936 7.32458C7.60899 7.40764 7.56668 7.51055 7.56668 7.63332V10.6C7.56668 10.7228 7.60789 10.8257 7.69032 10.9087C7.77274 10.9918 7.87487 11.0333 7.99672 11.0333ZM7.99648 6.19232C8.12917 6.19232 8.24156 6.14744 8.33365 6.0577C8.42574 5.96794 8.47178 5.85673 8.47178 5.72405C8.47178 5.59137 8.42691 5.47898 8.33715 5.38688C8.24741 5.29479 8.13619 5.24875 8.00352 5.24875C7.87083 5.24875 7.75844 5.29363 7.66635 5.38338C7.57426 5.47314 7.52822 5.58436 7.52822 5.71703C7.52822 5.84971 7.57309 5.96209 7.66285 6.05418C7.75259 6.14627 7.86381 6.19232 7.99648 6.19232ZM8.00572 14.0667C7.17114 14.0667 6.38514 13.9088 5.64772 13.593C4.91028 13.2772 4.26483 12.8427 3.71135 12.2895C3.15786 11.7363 2.72316 11.0913 2.40723 10.3547C2.09131 9.61808 1.93335 8.83101 1.93335 7.99348C1.93335 7.15595 2.09124 6.37125 2.40702 5.63938C2.72279 4.90751 3.15729 4.26483 3.71052 3.71135C4.26375 3.15786 4.90868 2.72316 5.6453 2.40723C6.38192 2.09131 7.16899 1.93335 8.00652 1.93335C8.84405 1.93335 9.62875 2.09124 10.3606 2.40702C11.0925 2.72279 11.7352 3.15729 12.2886 3.71052C12.8421 4.26375 13.2768 4.90738 13.5928 5.6414C13.9087 6.37542 14.0667 7.15972 14.0667 7.99428C14.0667 8.82886 13.9088 9.61486 13.593 10.3523C13.2772 11.0897 12.8427 11.7352 12.2895 12.2886C11.7363 12.8421 11.0926 13.2768 10.3586 13.5928C9.62458 13.9087 8.84028 14.0667 8.00572 14.0667ZM8 13.2C9.44444 13.2 10.6722 12.6944 11.6833 11.6833C12.6944 10.6722 13.2 9.44444 13.2 8C13.2 6.55556 12.6944 5.32778 11.6833 4.31667C10.6722 3.30556 9.44444 2.8 8 2.8C6.55556 2.8 5.32778 3.30556 4.31667 4.31667C3.30556 5.32778 2.8 6.55556 2.8 8C2.8 9.44444 3.30556 10.6722 4.31667 11.6833C5.32778 12.6944 6.55556 13.2 8 13.2Z" fill="#303030"/>
</g>
</svg>
