<svg width="24" height="24" viewBox="0 0 24 24" fill="none" xmlns="http://www.w3.org/2000/svg">
<mask id="mask0_1328_46295" style="mask-type:alpha" maskUnits="userSpaceOnUse" x="0" y="0" width="24" height="24">
<rect width="24" height="24" fill="#D9D9D9"/>
</mask>
<g mask="url(#mask0_1328_46295)">
<path d="M13.4499 14.0508H10.1999C10.1004 14.0508 10.0172 14.0839 9.95028 14.1502C9.88336 14.2164 9.8499 14.2988 9.8499 14.3973C9.8499 14.4957 9.88336 14.5793 9.95028 14.6479C10.0172 14.7164 10.1004 14.7507 10.1999 14.7507H11.6499V15.6008C11.6499 15.7002 11.683 15.7834 11.7493 15.8504C11.8155 15.9173 11.8979 15.9507 11.9964 15.9507C12.0949 15.9507 12.1784 15.9173 12.247 15.8504C12.3156 15.7834 12.3499 15.7002 12.3499 15.6008V14.7507H13.0653C13.3668 14.7507 13.6229 14.6453 13.8337 14.4346C14.0445 14.2238 14.1499 13.9677 14.1499 13.6661V12.7354C14.1499 12.4338 14.0445 12.1777 13.8337 11.9669C13.6229 11.7562 13.3668 11.6508 13.0653 11.6508H10.5499V9.95073H13.7999C13.8994 9.95073 13.9826 9.91761 14.0495 9.85136C14.1164 9.78512 14.1499 9.70276 14.1499 9.60426C14.1499 9.50577 14.1164 9.42224 14.0495 9.35366C13.9826 9.28507 13.8994 9.25078 13.7999 9.25078H12.3499V8.40076C12.3499 8.30127 12.3167 8.21807 12.2505 8.15116C12.1842 8.08424 12.1019 8.05078 12.0034 8.05078C11.9049 8.05078 11.8214 8.08424 11.7528 8.15116C11.6842 8.21807 11.6499 8.30127 11.6499 8.40076V9.25078H10.9345C10.633 9.25078 10.3768 9.35616 10.1661 9.56693C9.95529 9.7777 9.8499 10.0338 9.8499 10.3354V11.2661C9.8499 11.5677 9.95529 11.8238 10.1661 12.0346C10.3768 12.2453 10.633 12.3507 10.9345 12.3507H13.4499V14.0508ZM4.5076 18.7007C4.05747 18.7007 3.67699 18.5452 3.36615 18.2342C3.05532 17.9232 2.8999 17.5424 2.8999 17.092V6.90138C2.8999 6.45098 3.05532 6.07161 3.36615 5.76328C3.67699 5.45495 4.05747 5.30078 4.5076 5.30078H19.4922C19.9423 5.30078 20.3228 5.4563 20.6336 5.76733C20.9444 6.07837 21.0999 6.45908 21.0999 6.90948V17.1001C21.0999 17.5505 20.9444 17.9299 20.6336 18.2382C20.3228 18.5466 19.9423 18.7007 19.4922 18.7007H4.5076ZM4.5076 17.4008H19.4922C19.5691 17.4008 19.6396 17.3687 19.7037 17.3046C19.7678 17.2405 19.7999 17.17 19.7999 17.093V6.90848C19.7999 6.83155 19.7678 6.76102 19.7037 6.69691C19.6396 6.63281 19.5691 6.60076 19.4922 6.60076H4.5076C4.43067 6.60076 4.36014 6.63281 4.29603 6.69691C4.23193 6.76102 4.19988 6.83155 4.19988 6.90848V17.093C4.19988 17.17 4.23193 17.2405 4.29603 17.3046C4.36014 17.3687 4.43067 17.4008 4.5076 17.4008Z" fill="currentColor"/>
</g>
</svg>
