<svg width="24" height="24" viewBox="0 0 24 24" fill="none" xmlns="http://www.w3.org/2000/svg">
<mask id="mask0_1328_55689" style="mask-type:alpha" maskUnits="userSpaceOnUse" x="0" y="0" width="24" height="24">
<rect width="24" height="24" fill="#D9D9D9"/>
</mask>
<g mask="url(#mask0_1328_55689)">
<path d="M9.95777 17.7509C9.77361 17.7509 9.61923 17.6891 9.49465 17.5654C9.37008 17.4418 9.3078 17.2886 9.3078 17.1059C9.3078 16.9231 9.37008 16.7682 9.49465 16.6413C9.61923 16.5144 9.77361 16.451 9.95777 16.451H19.2501C19.4342 16.451 19.5886 16.5128 19.7132 16.6364C19.8378 16.76 19.9 16.9132 19.9 17.096C19.9 17.2788 19.8378 17.4336 19.7132 17.5605C19.5886 17.6874 19.4342 17.7509 19.2501 17.7509H9.95777ZM9.95777 12.6509C9.77361 12.6509 9.61923 12.5891 9.49465 12.4654C9.37008 12.3418 9.3078 12.1886 9.3078 12.0058C9.3078 11.8231 9.37008 11.6682 9.49465 11.5413C9.61923 11.4144 9.77361 11.351 9.95777 11.351H19.2501C19.4342 11.351 19.5886 11.4128 19.7132 11.5364C19.8378 11.66 19.9 11.8132 19.9 11.996C19.9 12.1788 19.8378 12.3336 19.7132 12.4605C19.5886 12.5874 19.4342 12.6509 19.2501 12.6509H9.95777ZM9.95777 7.5509C9.77361 7.5509 9.61923 7.48908 9.49465 7.36545C9.37008 7.24182 9.3078 7.08862 9.3078 6.90585C9.3078 6.72308 9.37008 6.56824 9.49465 6.44133C9.61923 6.31441 9.77361 6.25095 9.95777 6.25095H19.2501C19.4342 6.25095 19.5886 6.31277 19.7132 6.4364C19.8378 6.56003 19.9 6.71323 19.9 6.896C19.9 7.07877 19.8378 7.23361 19.7132 7.36052C19.5886 7.48744 19.4342 7.5509 19.2501 7.5509H9.95777ZM5.55825 18.5644C5.15433 18.5644 4.81033 18.4205 4.52625 18.1329C4.24215 17.8453 4.1001 17.4995 4.1001 17.0956C4.1001 16.6917 4.24391 16.3477 4.53155 16.0636C4.81918 15.7795 5.16495 15.6375 5.56885 15.6375C5.97276 15.6375 6.31676 15.7813 6.60085 16.0689C6.88493 16.3566 7.02697 16.7023 7.02697 17.1062C7.02697 17.5101 6.88316 17.8541 6.59555 18.1382C6.30791 18.4223 5.96215 18.5644 5.55825 18.5644ZM5.55825 13.4643C5.15433 13.4643 4.81033 13.3205 4.52625 13.0329C4.24215 12.7453 4.1001 12.3995 4.1001 11.9956C4.1001 11.5917 4.24391 11.2477 4.53155 10.9636C4.81918 10.6795 5.16495 10.5375 5.56885 10.5375C5.97276 10.5375 6.31676 10.6813 6.60085 10.9689C6.88493 11.2566 7.02697 11.6023 7.02697 12.0062C7.02697 12.4101 6.88316 12.7541 6.59555 13.0382C6.30791 13.3223 5.96215 13.4643 5.55825 13.4643ZM5.55825 8.36435C5.15433 8.36435 4.81033 8.22054 4.52625 7.93293C4.24215 7.64529 4.1001 7.29953 4.1001 6.89563C4.1001 6.49171 4.24391 6.14771 4.53155 5.86362C4.81918 5.57954 5.16495 5.4375 5.56885 5.4375C5.97276 5.4375 6.31676 5.58131 6.60085 5.86892C6.88493 6.15656 7.02697 6.50232 7.02697 6.90622C7.02697 7.31014 6.88316 7.65414 6.59555 7.93823C6.30791 8.22231 5.96215 8.36435 5.55825 8.36435Z" fill="currentColor"/>
</g>
</svg>
