<svg width="24" height="24" viewBox="0 0 24 24" fill="none" xmlns="http://www.w3.org/2000/svg">
<mask id="mask0_1328_40766" style="mask-type:alpha" maskUnits="userSpaceOnUse" x="0" y="0" width="24" height="24">
<rect width="24" height="24" fill="#D9D9D9"/>
</mask>
<g mask="url(#mask0_1328_40766)">
<path d="M5.7078 21.1005C5.25766 21.1005 4.87718 20.9422 4.56635 20.6255C4.25551 20.3088 4.1001 19.9312 4.1001 19.4928V6.90823C4.1001 6.46977 4.25551 6.0922 4.56635 5.77553C4.87718 5.45886 5.25766 5.30053 5.7078 5.30053H7.89242V3.45436C7.89242 3.26347 7.95573 3.10422 8.08235 2.97658C8.20896 2.84897 8.36697 2.78516 8.55637 2.78516C8.74577 2.78516 8.90554 2.84897 9.03567 2.97658C9.16579 3.10422 9.23085 3.26347 9.23085 3.45436V5.30053H14.8077V3.43513C14.8077 3.25065 14.8695 3.0962 14.9929 2.97178C15.1163 2.84737 15.2695 2.78516 15.4525 2.78516C15.6355 2.78516 15.7904 2.84737 15.9173 2.97178C16.0443 3.0962 16.1077 3.25065 16.1077 3.43513V5.30053H18.2923C18.7425 5.30053 19.123 5.45886 19.4338 5.77553C19.7446 6.0922 19.9 6.46977 19.9 6.90823V19.4928C19.9 19.9312 19.7446 20.3088 19.4338 20.6255C19.123 20.9422 18.7425 21.1005 18.2923 21.1005H5.7078ZM5.7078 19.8005H18.2923C18.3693 19.8005 18.4398 19.7685 18.5039 19.7044C18.568 19.6402 18.6001 19.5697 18.6001 19.4928V11.1082H5.40007V19.4928C5.40007 19.5697 5.43212 19.6402 5.49622 19.7044C5.56034 19.7685 5.63086 19.8005 5.7078 19.8005ZM5.40007 9.80826H18.6001V6.90823C18.6001 6.8313 18.568 6.76077 18.5039 6.69666C18.4398 6.63256 18.3693 6.60051 18.2923 6.60051H5.7078C5.63086 6.60051 5.56034 6.63256 5.49622 6.69666C5.43212 6.76077 5.40007 6.8313 5.40007 6.90823V9.80826ZM12.0053 14.4774C11.7903 14.4774 11.6049 14.4013 11.4491 14.2491C11.2934 14.0968 11.2155 13.9131 11.2155 13.6981C11.2155 13.483 11.2916 13.2976 11.4438 13.1419C11.5961 12.9861 11.7798 12.9082 11.9948 12.9082C12.2098 12.9082 12.3953 12.9844 12.551 13.1366C12.7068 13.2889 12.7847 13.4725 12.7847 13.6876C12.7847 13.9026 12.7085 14.088 12.5563 14.2438C12.404 14.3995 12.2204 14.4774 12.0053 14.4774ZM8.10535 14.4774C7.8903 14.4774 7.70489 14.4013 7.54912 14.2491C7.39336 14.0968 7.31547 13.9131 7.31547 13.6981C7.31547 13.483 7.3916 13.2976 7.54385 13.1419C7.69611 12.9861 7.87976 12.9082 8.0948 12.9082C8.30985 12.9082 8.49526 12.9844 8.65102 13.1366C8.80679 13.2889 8.88467 13.4725 8.88467 13.6876C8.88467 13.9026 8.80855 14.088 8.6563 14.2438C8.50403 14.3995 8.32038 14.4774 8.10535 14.4774ZM15.9053 14.4774C15.6903 14.4774 15.5049 14.4013 15.3491 14.2491C15.1934 14.0968 15.1155 13.9131 15.1155 13.6981C15.1155 13.483 15.1916 13.2976 15.3438 13.1419C15.4961 12.9861 15.6798 12.9082 15.8948 12.9082C16.1098 12.9082 16.2953 12.9844 16.451 13.1366C16.6068 13.2889 16.6847 13.4725 16.6847 13.6876C16.6847 13.9026 16.6085 14.088 16.4563 14.2438C16.304 14.3995 16.1204 14.4774 15.9053 14.4774ZM12.0053 18.0005C11.7903 18.0005 11.6049 17.9244 11.4491 17.7721C11.2934 17.6199 11.2155 17.4362 11.2155 17.2212C11.2155 17.0061 11.2916 16.8207 11.4438 16.665C11.5961 16.5092 11.7798 16.4313 11.9948 16.4313C12.2098 16.4313 12.3953 16.5074 12.551 16.6597C12.7068 16.8119 12.7847 16.9956 12.7847 17.2106C12.7847 17.4257 12.7085 17.6111 12.5563 17.7669C12.404 17.9226 12.2204 18.0005 12.0053 18.0005ZM8.10535 18.0005C7.8903 18.0005 7.70489 17.9244 7.54912 17.7721C7.39336 17.6199 7.31547 17.4362 7.31547 17.2212C7.31547 17.0061 7.3916 16.8207 7.54385 16.665C7.69611 16.5092 7.87976 16.4313 8.0948 16.4313C8.30985 16.4313 8.49526 16.5074 8.65102 16.6597C8.80679 16.8119 8.88467 16.9956 8.88467 17.2106C8.88467 17.4257 8.80855 17.6111 8.6563 17.7669C8.50403 17.9226 8.32038 18.0005 8.10535 18.0005ZM15.9053 18.0005C15.6903 18.0005 15.5049 17.9244 15.3491 17.7721C15.1934 17.6199 15.1155 17.4362 15.1155 17.2212C15.1155 17.0061 15.1916 16.8207 15.3438 16.665C15.4961 16.5092 15.6798 16.4313 15.8948 16.4313C16.1098 16.4313 16.2953 16.5074 16.451 16.6597C16.6068 16.8119 16.6847 16.9956 16.6847 17.2106C16.6847 17.4257 16.6085 17.6111 16.4563 17.7669C16.304 17.9226 16.1204 18.0005 15.9053 18.0005Z" fill="currentColor"/>
</g>
</svg>
