<svg preserveAspectRatio="none" width="100%" height="100%" overflow="visible" style="display: block;" viewBox="0 0 18.1318 18.7637" fill="none" xmlns="http://www.w3.org/2000/svg">
<path id="askgpt_icon" d="M8.08984 2.85059C8.43193 2.85059 8.7782 2.9662 9.05762 3.22559L9.05859 3.22461C9.06303 3.2287 9.06689 3.23419 9.07129 3.23828C9.07641 3.24309 9.08286 3.24701 9.08789 3.25195L9.08691 3.25293C9.29521 3.45227 9.42597 3.69199 9.49414 3.93848L9.52051 4.04883L9.52734 4.08398L9.53223 4.12012C9.65499 5.06701 9.79056 5.84781 9.93555 6.46875L10.0508 6.8877C10.1702 7.2739 10.3051 7.5814 10.4473 7.82031L10.5918 8.0293C10.747 8.22612 10.9336 8.38907 11.1543 8.52148C11.468 8.7096 11.9082 8.88096 12.5039 9.0127C13.123 9.14959 13.9074 9.27125 14.8643 9.375H14.8633C15.1546 9.4047 15.4449 9.51448 15.6875 9.72559L15.79 9.82324L15.8779 9.92676C16.0727 10.175 16.1807 10.4776 16.1807 10.8027C16.1805 11.1653 16.0508 11.5153 15.79 11.791C15.5293 12.0665 15.1966 12.2043 14.8633 12.2383L14.8643 12.2393C13.9074 12.343 13.123 12.4647 12.5039 12.6016C11.9082 12.7333 11.468 12.9046 11.1543 13.0928L11.1455 13.0986C10.8559 13.2685 10.6263 13.4936 10.4473 13.7852C10.258 14.1035 10.0806 14.5477 9.93555 15.1436C9.79029 15.7653 9.65508 16.5444 9.53223 17.4863L9.52832 17.5166L9.52246 17.5469C9.46766 17.8289 9.33566 18.1232 9.08691 18.3613L9.08789 18.3623C9.08282 18.3672 9.07637 18.3711 9.07129 18.376C9.06691 18.3801 9.06308 18.3856 9.05859 18.3896L9.05762 18.3887C8.77824 18.6479 8.43186 18.7637 8.08984 18.7637C7.72839 18.7636 7.38954 18.6334 7.12109 18.3896C6.8402 18.135 6.70418 17.8095 6.65918 17.501V17.498C6.52392 16.5512 6.37824 15.7721 6.22656 15.1543L6.22559 15.1475C6.08643 14.5643 5.91012 14.1328 5.71875 13.8252C5.54038 13.5387 5.30946 13.3143 5.0166 13.1426L5.01172 13.1396C4.7011 12.955 4.25988 12.7827 3.65918 12.6445L3.64844 12.6416C3.03532 12.4939 2.25734 12.3583 1.30664 12.2373V12.2354C0.986096 12.1994 0.65374 12.069 0.390625 11.791C0.129817 11.5153 0.000116325 11.1654 0 10.8027C4.29973e-06 10.4312 0.139864 10.0885 0.390625 9.82324C0.658634 9.54002 0.998117 9.40796 1.32422 9.375L2.00586 9.29395C2.65554 9.20951 3.21119 9.11542 3.67578 9.0127C4.27173 8.88092 4.71263 8.70968 5.02637 8.52148C5.3206 8.34493 5.55313 8.11384 5.7334 7.82031C5.92649 7.50571 6.10369 7.06721 6.24316 6.47754L6.24414 6.4707C6.39479 5.85162 6.53402 5.07045 6.65723 4.12012L6.6582 4.1084L6.66016 4.09766C6.70802 3.78439 6.85052 3.46998 7.12109 3.22461C7.38958 2.98076 7.72832 2.85065 8.08984 2.85059ZM8.08984 3.85059C7.97583 3.85064 7.87699 3.88922 7.79297 3.96582C7.71505 4.03655 7.66643 4.13123 7.64844 4.24902L7.55078 4.94922C7.44943 5.62139 7.33744 6.20829 7.21582 6.70801L7.15527 6.9502C7.00687 7.50246 6.817 7.96732 6.58594 8.34375L6.48242 8.50098C6.23288 8.85875 5.91921 9.15195 5.54102 9.37891L5.37305 9.47363C4.96908 9.68835 4.47485 9.86029 3.8916 9.98926L3.36328 10.0957C2.8059 10.1985 2.16227 10.2895 1.43262 10.3691C1.30056 10.3809 1.19525 10.4283 1.11719 10.5107C1.03928 10.5932 1 10.6908 1 10.8027C1.00011 10.9205 1.03922 11.0211 1.11719 11.1035C1.19524 11.1859 1.30065 11.2333 1.43262 11.2451C2.40548 11.3689 3.22221 11.5107 3.88281 11.6699C4.54943 11.8232 5.09606 12.0267 5.52246 12.2803C5.95467 12.5338 6.3032 12.8725 6.56738 13.2969C6.83154 13.7214 7.04213 14.2617 7.19824 14.916C7.3603 15.5762 7.51037 16.39 7.64844 17.3564C7.66651 17.48 7.71503 17.5778 7.79297 17.6484C7.87694 17.7249 7.97594 17.7636 8.08984 17.7637C8.20984 17.7637 8.30965 17.7249 8.3877 17.6484C8.44608 17.5954 8.48948 17.5271 8.51758 17.4443L8.54102 17.3564C8.66707 16.39 8.80782 15.5733 8.96387 14.9072C9.12598 14.2411 9.33657 13.6921 9.59473 13.2617C9.8259 12.8852 10.1216 12.5761 10.4814 12.335L10.6396 12.2354C11.072 11.976 11.6216 11.7724 12.2881 11.625C12.9547 11.4776 13.7779 11.3513 14.7568 11.2451C14.8512 11.2363 14.9325 11.2076 15 11.1592L15.0635 11.1035C15.1219 11.0417 15.1582 10.9693 15.1729 10.8877L15.1807 10.8027C15.1807 10.6909 15.1413 10.5932 15.0635 10.5107C14.9854 10.4282 14.8829 10.381 14.7568 10.3691C14.0226 10.2895 13.376 10.1985 12.8174 10.0957L12.2881 9.98926C11.7051 9.86033 11.2115 9.68824 10.8076 9.47363L10.6396 9.37891C10.2073 9.11952 9.85896 8.77404 9.59473 8.34375C9.33659 7.91349 9.126 7.36802 8.96387 6.70801C8.84676 6.20829 8.73792 5.6214 8.6377 4.94922L8.54102 4.24902C8.51705 4.13136 8.46547 4.03653 8.3877 3.96582C8.30962 3.88916 8.20996 3.85059 8.08984 3.85059ZM15.4717 0.00976562C15.605 0.0300971 15.7465 0.0847378 15.8711 0.195312C15.9906 0.301425 16.0596 0.427707 16.0986 0.543945L16.1289 0.655273L16.1309 0.666992C16.1957 1.01821 16.2523 1.28275 16.3008 1.4668C16.3327 1.58795 16.369 1.64869 16.3887 1.67578C16.4155 1.6956 16.4789 1.73434 16.6084 1.77344C16.7024 1.79868 16.818 1.82612 16.9561 1.85547L17.458 1.95312L17.4668 1.95508C17.604 1.98192 17.7818 2.04652 17.9258 2.20117C18.0788 2.36567 18.1318 2.56465 18.1318 2.7373C18.1318 2.90426 18.0839 3.10281 17.9346 3.27051C17.791 3.4316 17.6103 3.50025 17.4668 3.52832L17.458 3.53027L17.4492 3.53125C17.0684 3.59419 16.7938 3.65415 16.6133 3.70801C16.4566 3.75476 16.3985 3.80069 16.3857 3.81348C16.3798 3.81964 16.3395 3.86886 16.3008 4.01562C16.2523 4.19973 16.1958 4.46475 16.1309 4.81641L16.1289 4.82812C16.1 4.96926 16.0304 5.14672 15.8711 5.28809C15.7052 5.43531 15.5092 5.48335 15.3428 5.4834C15.1829 5.48338 14.9803 5.44052 14.8086 5.28809C14.65 5.14712 14.5832 4.96989 14.5566 4.8252L14.5557 4.82617C14.4845 4.47312 14.4247 4.20429 14.375 4.01562L14.3711 4C14.3392 3.86384 14.3018 3.82625 14.3018 3.82617L14.2783 3.80273C14.2773 3.80164 14.2656 3.78974 14.2344 3.77246C14.2002 3.75364 14.1481 3.73064 14.0723 3.70801C13.8917 3.65415 13.6163 3.5942 13.2354 3.53125L13.2275 3.53027L13.2188 3.52832C13.0752 3.50026 12.8936 3.43179 12.75 3.27051C12.638 3.14471 12.5838 3.00129 12.5635 2.86719L12.5537 2.7373L12.5635 2.60352C12.5855 2.46712 12.6442 2.32445 12.7588 2.20117C12.867 2.08496 12.9946 2.01908 13.1094 1.98242L13.2266 1.95312H13.2275C13.6061 1.88488 13.8868 1.8239 14.0781 1.77246C14.1533 1.74967 14.2066 1.72799 14.2422 1.70898C14.2763 1.69075 14.2892 1.67852 14.29 1.67773V1.67676C14.3002 1.66621 14.3394 1.61864 14.3711 1.4834L14.373 1.47559L14.375 1.4668C14.4247 1.27818 14.4846 1.00995 14.5557 0.657227H14.5566C14.5833 0.512693 14.6504 0.336022 14.8086 0.195312C14.9803 0.042879 15.1829 2.17989e-05 15.3428 0L15.4717 0.00976562ZM15.3428 0.599609C15.2288 0.599651 15.1626 0.65828 15.1445 0.775391C15.0725 1.13312 15.0091 1.41486 14.9551 1.62012L14.9131 1.76562C14.8658 1.90169 14.8016 2.01127 14.7207 2.09473C14.6186 2.20027 14.4594 2.28608 14.2432 2.35059L13.8535 2.44238C13.7021 2.47459 13.5289 2.50881 13.334 2.54395C13.214 2.56742 13.1533 2.6318 13.1533 2.7373C13.1534 2.84863 13.214 2.91598 13.334 2.93945C13.7239 3.0039 14.0271 3.06837 14.2432 3.13281C14.4591 3.19724 14.6186 3.28526 14.7207 3.39648C14.8288 3.50203 14.907 3.65806 14.9551 3.86328C15.0091 4.06852 15.0725 4.35035 15.1445 4.70801C15.1581 4.79564 15.1983 4.85103 15.2656 4.87305L15.3428 4.88379C15.4238 4.88372 15.4809 4.85027 15.5146 4.78418L15.541 4.70801C15.574 4.52922 15.6057 4.36922 15.6357 4.22852L15.7207 3.86328C15.7748 3.65806 15.853 3.50204 15.9551 3.39648C16.0631 3.2852 16.2254 3.19727 16.4414 3.13281C16.5495 3.10058 16.6795 3.06837 16.8311 3.03613L17.3516 2.93945C17.4416 2.92185 17.498 2.87959 17.5205 2.8125L17.5312 2.7373C17.5312 2.6318 17.4716 2.56742 17.3516 2.54395C17.1563 2.50875 16.9827 2.47464 16.8311 2.44238L16.4414 2.35059C16.2253 2.28608 16.0632 2.20026 15.9551 2.09473C15.8787 2.01125 15.8151 1.90168 15.7656 1.76562L15.7207 1.62012C15.6709 1.431 15.6166 1.17693 15.5566 0.858398L15.541 0.775391C15.517 0.658297 15.4507 0.599705 15.3428 0.599609Z" fill="var(--fill-0, #303030)"/>
</svg>
