<svg width="24" height="24" viewBox="0 0 24 24" fill="none" xmlns="http://www.w3.org/2000/svg">
<mask id="mask0_1328_2286" style="mask-type:alpha" maskUnits="userSpaceOnUse" x="0" y="0" width="24" height="24">
<rect width="24" height="24" fill="#D9D9D9"/>
</mask>
<g mask="url(#mask0_1328_2286)">
<path d="M11.9999 12.2965L13.7345 13.3292C13.8986 13.4164 14.0502 13.4023 14.1893 13.2869C14.3284 13.1715 14.3761 13.0318 14.3326 12.8677L13.8614 10.9561L15.371 9.66769C15.5082 9.54717 15.5512 9.40198 15.5 9.23212C15.4489 9.06223 15.3353 8.9696 15.1595 8.95422L13.1537 8.77922L12.3895 6.97289C12.3176 6.80276 12.1895 6.71769 12.0052 6.71769C11.8209 6.71769 11.6924 6.80276 11.6196 6.97289L10.846 8.77922L8.84028 8.95422C8.66441 8.9696 8.55089 9.06223 8.49973 9.23212C8.44856 9.40198 8.49157 9.54717 8.62875 9.66769L10.1384 10.9561L9.6672 12.8677C9.62362 13.0318 9.67138 13.1715 9.81048 13.2869C9.94958 13.4023 10.1012 13.4164 10.2653 13.3292L11.9999 12.2965ZM6.03835 17.5003L4.26438 19.2743C4.01114 19.5275 3.72043 19.5854 3.39223 19.4478C3.06401 19.3103 2.8999 19.0624 2.8999 18.7042V4.50809C2.8999 4.05796 3.05532 3.67747 3.36615 3.36664C3.67699 3.05581 4.05747 2.90039 4.5076 2.90039H19.4922C19.9423 2.90039 20.3228 3.05581 20.6336 3.36664C20.9444 3.67747 21.0999 4.05796 21.0999 4.50809V15.8926C21.0999 16.3428 20.9444 16.7233 20.6336 17.0341C20.3228 17.3449 19.9423 17.5003 19.4922 17.5003H6.03835ZM5.4999 16.2004H19.4922C19.5691 16.2004 19.6396 16.1683 19.7037 16.1042C19.7678 16.0401 19.7999 15.9696 19.7999 15.8926V4.50809C19.7999 4.43116 19.7678 4.36063 19.7037 4.29652C19.6396 4.23242 19.5691 4.20037 19.4922 4.20037H4.5076C4.43067 4.20037 4.36014 4.23242 4.29603 4.29652C4.23193 4.36063 4.19988 4.43116 4.19988 4.50809V17.51L5.4999 16.2004Z" fill="currentColor"/>
</g>
</svg>
