<svg width="24" height="24" viewBox="0 0 24 24" fill="none" xmlns="http://www.w3.org/2000/svg">
<mask id="mask0_1328_55129" style="mask-type:alpha" maskUnits="userSpaceOnUse" x="0" y="0" width="24" height="24">
<rect width="24" height="24" fill="#D9D9D9"/>
</mask>
<g mask="url(#mask0_1328_55129)">
<path d="M7.23835 16.339C6.03805 16.339 5.0149 15.9155 4.1689 15.0685C3.3229 14.2215 2.8999 13.1971 2.8999 11.9954C2.8999 10.7937 3.3229 9.77107 4.1689 8.92748C5.0149 8.0839 6.03805 7.66211 7.23835 7.66211H9.95758C10.1417 7.66211 10.2961 7.72393 10.4207 7.84756C10.5453 7.97119 10.6076 8.12439 10.6076 8.30716C10.6076 8.48993 10.5453 8.64477 10.4207 8.77168C10.2961 8.8986 10.1417 8.96206 9.95758 8.96206H7.2372C6.39822 8.96206 5.68225 9.25853 5.0893 9.85148C4.49635 10.4444 4.19988 11.1608 4.19988 12.0005C4.19988 12.8403 4.49635 13.5566 5.0893 14.1496C5.68225 14.7425 6.39822 15.039 7.2372 15.039H9.95758C10.1417 15.039 10.2961 15.1008 10.4207 15.2245C10.5453 15.3481 10.6076 15.5013 10.6076 15.6841C10.6076 15.8668 10.5453 16.0217 10.4207 16.1486C10.2961 16.2755 10.1417 16.339 9.95758 16.339H7.23835ZM9.30695 12.6505C9.12307 12.6505 8.96759 12.5887 8.84053 12.4651C8.71344 12.3414 8.6499 12.1882 8.6499 12.0055C8.6499 11.8227 8.71209 11.6679 8.83648 11.5409C8.96086 11.414 9.11499 11.3506 9.29888 11.3506H14.6928C14.8767 11.3506 15.0322 11.4124 15.1593 11.536C15.2863 11.6596 15.3499 11.8128 15.3499 11.9956C15.3499 12.1784 15.2877 12.3332 15.1633 12.4601C15.0389 12.5871 14.8848 12.6505 14.7009 12.6505H9.30695ZM14.0422 16.339C13.858 16.339 13.7036 16.2771 13.5791 16.1535C13.4545 16.0299 13.3922 15.8767 13.3922 15.6939C13.3922 15.5111 13.4545 15.3563 13.5791 15.2294C13.7036 15.1025 13.858 15.039 14.0422 15.039H16.7626C17.6015 15.039 18.3175 14.7425 18.9105 14.1496C19.5034 13.5566 19.7999 12.8403 19.7999 12.0005C19.7999 11.1608 19.5034 10.4444 18.9105 9.85148C18.3175 9.25853 17.6015 8.96206 16.7626 8.96206H14.0422C13.858 8.96206 13.7036 8.90024 13.5791 8.77661C13.4545 8.65298 13.3922 8.49978 13.3922 8.31701C13.3922 8.13424 13.4545 7.9794 13.5791 7.85248C13.7036 7.72557 13.858 7.66211 14.0422 7.66211H16.7614C17.9617 7.66211 18.9849 8.0856 19.8309 8.93258C20.6769 9.77958 21.0999 10.8039 21.0999 12.0056C21.0999 13.2074 20.6769 14.23 19.8309 15.0736C18.9849 15.9172 17.9617 16.339 16.7614 16.339H14.0422Z" fill="currentColor"/>
</g>
</svg>
