<svg width="24" height="24" viewBox="0 0 24 24" fill="none" xmlns="http://www.w3.org/2000/svg">
<mask id="mask0_1328_40892" style="mask-type:alpha" maskUnits="userSpaceOnUse" x="0" y="0" width="24" height="24">
<rect width="24" height="24" fill="#D9D9D9"/>
</mask>
<g mask="url(#mask0_1328_40892)">
<path d="M11.9998 11.6921C11.1373 11.6921 10.405 11.3911 9.80293 10.789C9.20085 10.1869 8.8998 9.45465 8.8998 8.59216C8.8998 7.72966 9.20085 6.99738 9.80293 6.39531C10.405 5.79323 11.1373 5.49219 11.9998 5.49219C12.8623 5.49219 13.5945 5.79323 14.1966 6.39531C14.7987 6.99738 15.0998 7.72966 15.0998 8.59216C15.0998 9.45465 14.7987 10.1869 14.1966 10.789C13.5945 11.3911 12.8623 11.6921 11.9998 11.6921ZM5.2998 17.1883V16.6844C5.2998 16.378 5.39115 16.0829 5.57385 15.7989C5.75654 15.5149 6.01198 15.2691 6.34018 15.0614C7.21198 14.5601 8.1282 14.1758 9.08883 13.9085C10.0495 13.6412 11.018 13.5076 11.9946 13.5076C12.9711 13.5076 13.9414 13.6412 14.9055 13.9085C15.8696 14.1758 16.7876 14.5601 17.6594 15.0614C17.9876 15.2524 18.243 15.4941 18.4257 15.7864C18.6084 16.0787 18.6998 16.378 18.6998 16.6844V17.1883C18.6998 17.5551 18.5715 17.8666 18.3149 18.123C18.0584 18.3793 17.7466 18.5075 17.3795 18.5075H6.61193C6.24486 18.5075 5.93441 18.3793 5.68058 18.123C5.42673 17.8666 5.2998 17.5551 5.2998 17.1883ZM6.59978 17.2075H17.3998V16.6844C17.3998 16.5789 17.3617 16.4797 17.2857 16.3866C17.2096 16.2936 17.1047 16.2147 16.9709 16.1498C16.2427 15.7088 15.4559 15.3748 14.6105 15.1479C13.765 14.921 12.8948 14.8075 11.9998 14.8075C11.1047 14.8075 10.2345 14.921 9.38908 15.1479C8.54365 15.3748 7.75683 15.7088 7.02863 16.1498C6.89401 16.2421 6.78889 16.3305 6.71325 16.415C6.6376 16.4996 6.59978 16.5894 6.59978 16.6844V17.2075ZM12.0051 10.3922C12.5015 10.3922 12.9248 10.2154 13.2748 9.86184C13.6248 9.5083 13.7998 9.0833 13.7998 8.58684C13.7998 8.09039 13.623 7.66716 13.2695 7.31716C12.9159 6.96716 12.4909 6.79216 11.9945 6.79216C11.498 6.79216 11.0748 6.96893 10.7248 7.32246C10.3748 7.67601 10.1998 8.10101 10.1998 8.59746C10.1998 9.09393 10.3765 9.51716 10.7301 9.86716C11.0836 10.2172 11.5086 10.3922 12.0051 10.3922Z" fill="currentColor"/>
</g>
</svg>
