<svg width="24" height="24" viewBox="0 0 24 24" fill="none" xmlns="http://www.w3.org/2000/svg">
<mask id="mask0_1328_55173" style="mask-type:alpha" maskUnits="userSpaceOnUse" x="0" y="0" width="24" height="24">
<rect width="24" height="24" fill="#D9D9D9"/>
</mask>
<g mask="url(#mask0_1328_55173)">
<path d="M4.5076 18.7007C4.06914 18.7007 3.69157 18.5424 3.3749 18.2257C3.05824 17.9091 2.8999 17.5315 2.8999 17.093V6.90848C2.8999 6.47002 3.05824 6.09245 3.3749 5.77578C3.69157 5.45911 4.06914 5.30078 4.5076 5.30078H19.4922C19.9423 5.30078 20.3228 5.45911 20.6336 5.77578C20.9444 6.09245 21.0999 6.47002 21.0999 6.90848V17.093C21.0999 17.5315 20.9444 17.9091 20.6336 18.2257C20.3228 18.5424 19.9423 18.7007 19.4922 18.7007H4.5076ZM19.7999 8.16803L12.4364 12.5027C12.3674 12.5462 12.2963 12.5805 12.223 12.6055C12.1496 12.6305 12.0753 12.643 11.9999 12.643C11.9165 12.643 11.8464 12.6305 11.7893 12.6055C11.7323 12.5805 11.666 12.5487 11.5904 12.5102L4.19988 8.16803V17.093C4.19988 17.1828 4.22873 17.2565 4.28643 17.3142C4.34413 17.3719 4.41785 17.4008 4.5076 17.4008H19.4922C19.5819 17.4008 19.6556 17.3719 19.7133 17.3142C19.771 17.2565 19.7999 17.1828 19.7999 17.093V8.16803ZM11.9999 11.0758L19.621 6.60076H4.40373L11.9999 11.0758ZM4.19988 7.84541V8.05111V7.06806V7.08536V7.05363V8.05323V7.84758V17.4008V7.84541Z" fill="currentColor"/>
</g>
</svg>
