<svg width="24" height="24" viewBox="0 0 24 24" fill="none" xmlns="http://www.w3.org/2000/svg">
<mask id="mask0_1328_40909" style="mask-type:alpha" maskUnits="userSpaceOnUse" x="0" y="0" width="24" height="24">
<rect width="24" height="24" fill="#D9D9D9"/>
</mask>
<g mask="url(#mask0_1328_40909)">
<path d="M5.70785 19.8996C5.25768 19.8996 4.87718 19.7442 4.56635 19.4334C4.25551 19.1225 4.1001 18.742 4.1001 18.2919V5.70736C4.1001 5.25719 4.25551 4.87669 4.56635 4.56586C4.87718 4.25503 5.25768 4.09961 5.70785 4.09961H18.2923C18.7425 4.09961 19.123 4.25503 19.4338 4.56586C19.7447 4.87669 19.9001 5.25719 19.9001 5.70736V18.2919C19.9001 18.742 19.7447 19.1225 19.4338 19.4334C19.123 19.7442 18.7425 19.8996 18.2923 19.8996H5.70785ZM5.70785 18.5996H18.2923C18.3693 18.5996 18.4398 18.5675 18.5038 18.5034C18.568 18.4394 18.6001 18.3689 18.6001 18.2919V5.70736C18.6001 5.63036 18.568 5.55986 18.5038 5.49586C18.4398 5.43169 18.3693 5.39961 18.2923 5.39961H5.70785C5.63085 5.39961 5.56035 5.43169 5.49635 5.49586C5.43218 5.55986 5.4001 5.63036 5.4001 5.70736V18.2919C5.4001 18.3689 5.43218 18.4394 5.49635 18.5034C5.56035 18.5675 5.63085 18.5996 5.70785 18.5996ZM8.22085 9.84961C8.03785 9.84961 7.88285 9.91186 7.75585 10.0364C7.62901 10.1607 7.5656 10.3151 7.5656 10.4996V15.8996C7.5656 16.0841 7.62726 16.2385 7.7506 16.3629C7.8741 16.4874 8.02735 16.5496 8.21035 16.5496C8.39318 16.5496 8.5481 16.4874 8.6751 16.3629C8.80193 16.2385 8.86535 16.0841 8.86535 15.8996V10.4996C8.86535 10.3151 8.80368 10.1607 8.68035 10.0364C8.55701 9.91186 8.40385 9.84961 8.22085 9.84961ZM12.0053 7.44961C11.8223 7.44961 11.6674 7.51186 11.5406 7.63636C11.4136 7.76069 11.3501 7.91511 11.3501 8.09961V15.8996C11.3501 16.0841 11.4118 16.2385 11.5353 16.3629C11.6587 16.4874 11.8118 16.5496 11.9948 16.5496C12.1778 16.5496 12.3328 16.4874 12.4596 16.3629C12.5866 16.2385 12.6501 16.0841 12.6501 15.8996V8.09961C12.6501 7.91511 12.5883 7.76069 12.4648 7.63636C12.3415 7.51186 12.1883 7.44961 12.0053 7.44961ZM15.7898 13.4496C15.607 13.4496 15.4521 13.5116 15.3251 13.6356C15.1983 13.7596 15.1348 13.9135 15.1348 14.0974V15.8931C15.1348 16.0769 15.1965 16.2323 15.3198 16.3591C15.4432 16.4861 15.5963 16.5496 15.7793 16.5496C15.9623 16.5496 16.1173 16.4876 16.2443 16.3636C16.3712 16.2396 16.4346 16.0857 16.4346 15.9019V14.1061C16.4346 13.9223 16.3729 13.7669 16.2496 13.6401C16.1261 13.5131 15.9728 13.4496 15.7898 13.4496Z" fill="currentColor"/>
</g>
</svg>
