<svg width="24" height="24" viewBox="0 0 24 24" fill="none" xmlns="http://www.w3.org/2000/svg">
<path d="M10.2231 14.5068H7.88532L7.4985 15.6253H6.26235L8.37306 9.74723H9.74375L11.8545 15.6253H10.6099L10.2231 14.5068ZM9.90353 13.565L9.0542 11.1095L8.20487 13.565H9.90353Z" fill="#6834B7"/>
<path d="M13.8207 9.75564V15.6253H12.6434V9.75564H13.8207Z" fill="#6834B7"/>
<path d="M13.5886 6.14539H4.63527C3.40071 6.14539 2.3999 7.1462 2.3999 8.38076V17.3222C2.3999 18.5568 3.40071 19.5576 4.63527 19.5576H15.8121C17.0466 19.5576 18.0475 18.5568 18.0475 17.3222V10.6269C17.8294 10.7344 17.6075 10.7678 17.4275 10.7678C17.2577 10.7678 17.0891 10.7376 16.9298 10.6766V17.3222C16.9298 17.9395 16.4294 18.4399 15.8121 18.4399H4.63527C4.01799 18.4399 3.51758 17.9395 3.51758 17.3222V8.38076C3.51758 7.76348 4.01799 7.26307 4.63527 7.26307H13.5196C13.4587 7.09609 13.4353 6.92921 13.4353 6.77942C13.4353 6.56782 13.4829 6.34835 13.5886 6.14539Z" fill="#6834B7"/>
<path d="M19.576 4.66577C19.549 4.64449 19.5327 4.61752 19.5271 4.58487C19.5219 4.55567 19.5283 4.52771 19.5462 4.50098C19.6717 4.28577 19.7637 4.11323 19.8221 3.98334C19.8825 3.85498 19.905 3.74085 19.8898 3.64095C19.878 3.54063 19.8274 3.43012 19.7378 3.30941C19.6482 3.1887 19.5185 3.03165 19.3485 2.83824C19.2978 2.77949 19.2938 2.72296 19.3365 2.66866C19.3579 2.64151 19.3841 2.62605 19.4152 2.62227C19.4463 2.6185 19.476 2.62455 19.5041 2.64043C19.7245 2.76984 19.9023 2.86581 20.0377 2.92834C20.1745 2.98893 20.2931 3.01314 20.3934 3.00098C20.4971 2.9884 20.606 2.93748 20.72 2.84822C20.8356 2.75703 20.9837 2.6224 21.1645 2.44435C21.2195 2.39031 21.276 2.38609 21.334 2.43169C21.3919 2.47729 21.3994 2.5334 21.3563 2.60002C21.2288 2.81371 21.1349 2.98473 21.0746 3.1131C21.0162 3.24298 20.9946 3.35787 21.0098 3.45777C21.027 3.55919 21.0803 3.67025 21.1699 3.79096C21.261 3.90973 21.3906 4.06506 21.5586 4.25694C21.6093 4.3157 21.6133 4.37222 21.5706 4.42652C21.5279 4.48082 21.4681 4.48719 21.3914 4.44563C21.1699 4.32162 20.9917 4.23008 20.8568 4.17101C20.7218 4.11194 20.6033 4.08773 20.5011 4.09837C20.4008 4.11053 20.2936 4.16124 20.1796 4.2505C20.0675 4.34128 19.9226 4.47375 19.7449 4.64792C19.6903 4.70542 19.634 4.71137 19.576 4.66577Z" fill="#6834B7"/>
<path d="M17.4856 9.65012C17.4161 9.65012 17.3565 9.62769 17.3069 9.58284C17.2622 9.54296 17.2374 9.49063 17.2324 9.42584C17.1629 8.92745 17.0934 8.53871 17.0239 8.25961C16.9594 7.98051 16.8526 7.77118 16.7037 7.63163C16.5597 7.4871 16.3413 7.37496 16.0484 7.29522C15.7554 7.21548 15.3533 7.12826 14.842 7.03357C14.688 7.00366 14.6111 6.91894 14.6111 6.77939C14.6111 6.70961 14.6334 6.6523 14.6781 6.60744C14.7228 6.56259 14.7774 6.53517 14.842 6.52521C15.3533 6.45543 15.7554 6.38566 16.0484 6.31588C16.3413 6.24112 16.5597 6.13148 16.7037 5.98694C16.8526 5.83743 16.9618 5.62063 17.0314 5.33654C17.1009 5.04748 17.1679 4.64876 17.2324 4.14041C17.2523 3.9859 17.3367 3.90865 17.4856 3.90865C17.6346 3.90865 17.7165 3.9884 17.7314 4.14788C17.7959 4.64627 17.8604 5.03502 17.925 5.31412C17.9945 5.59322 18.1037 5.80254 18.2527 5.94209C18.4066 6.08164 18.63 6.19128 18.9229 6.27103C19.2158 6.34578 19.6154 6.43051 20.1218 6.52521C20.2757 6.55511 20.3527 6.63984 20.3527 6.77939C20.3527 6.91894 20.2658 7.00366 20.092 7.03357C19.5857 7.11331 19.1885 7.19056 18.9005 7.26532C18.6126 7.34008 18.3941 7.44972 18.2452 7.59425C18.1012 7.73879 17.9945 7.9531 17.925 8.23718C17.8604 8.52126 17.7959 8.9125 17.7314 9.41089C17.7165 9.57037 17.6346 9.65012 17.4856 9.65012Z" fill="#6834B7"/>
</svg>
