<svg width="24" height="24" viewBox="0 0 24 24" fill="none" xmlns="http://www.w3.org/2000/svg">
<mask id="mask0_1328_55156" style="mask-type:alpha" maskUnits="userSpaceOnUse" x="0" y="0" width="24" height="24">
<rect width="24" height="24" fill="#D9D9D9"/>
</mask>
<g mask="url(#mask0_1328_55156)">
<path d="M5.39347 10.7996C5.03891 10.7996 4.73471 10.6685 4.48087 10.4063C4.22702 10.1442 4.1001 9.84191 4.1001 9.49961V5.39959C4.1001 5.04562 4.22849 4.74047 4.48527 4.48414C4.74204 4.22779 5.04771 4.09961 5.40227 4.09961H9.5067C9.86127 4.09961 10.1655 4.22779 10.4193 4.48414C10.6732 4.74047 10.8001 5.04562 10.8001 5.39959V9.49961C10.8001 9.84191 10.6717 10.1442 10.4149 10.4063C10.1582 10.6685 9.85249 10.7996 9.49792 10.7996H5.39347ZM5.39347 19.8996C5.03891 19.8996 4.73471 19.7712 4.48087 19.5144C4.22702 19.2576 4.1001 18.952 4.1001 18.5974V14.493C4.1001 14.1384 4.22849 13.8342 4.48527 13.5803C4.74204 13.3265 5.04771 13.1996 5.40227 13.1996H9.5067C9.86127 13.1996 10.1655 13.328 10.4193 13.5847C10.6732 13.8415 10.8001 14.1472 10.8001 14.5017V18.6062C10.8001 18.9608 10.6717 19.265 10.4149 19.5188C10.1582 19.7726 9.85249 19.8996 9.49792 19.8996H5.39347ZM14.5 10.7996C14.1577 10.7996 13.8555 10.6685 13.5933 10.4063C13.3312 10.1442 13.2001 9.84191 13.2001 9.49961V5.39959C13.2001 5.04562 13.3312 4.74047 13.5933 4.48414C13.8555 4.22779 14.1577 4.09961 14.5 4.09961H18.6001C18.954 4.09961 19.2592 4.22779 19.5155 4.48414C19.7719 4.74047 19.9 5.04562 19.9 5.39959V9.49961C19.9 9.84191 19.7719 10.1442 19.5155 10.4063C19.2592 10.6685 18.954 10.7996 18.6001 10.7996H14.5ZM14.5 19.8996C14.1577 19.8996 13.8555 19.7712 13.5933 19.5144C13.3312 19.2576 13.2001 18.952 13.2001 18.5974V14.493C13.2001 14.1384 13.3312 13.8342 13.5933 13.5803C13.8555 13.3265 14.1577 13.1996 14.5 13.1996H18.6001C18.954 13.1996 19.2592 13.328 19.5155 13.5847C19.7719 13.8415 19.9 14.1472 19.9 14.5017V18.6062C19.9 18.9608 19.7719 19.265 19.5155 19.5188C19.2592 19.7726 18.954 19.8996 18.6001 19.8996H14.5ZM5.40007 9.49961H9.5001V5.39959H5.40007V9.49961ZM14.5 9.49961H18.6001V5.39959H14.5V9.49961ZM14.5 18.5996H18.6001V14.4996H14.5V18.5996ZM5.40007 18.5996H9.5001V14.4996H5.40007V18.5996Z" fill="currentColor"/>
</g>
</svg>
