<svg width="24" height="24" viewBox="0 0 24 24" fill="none" xmlns="http://www.w3.org/2000/svg">
<path fill-rule="evenodd" clip-rule="evenodd" d="M18 18.2222C18 18.6965 17.6639 19 17.14 19C16.626 19 16.369 18.8103 16.1812 18.2886L14.9061 14.9309H9.07414L7.79901 18.2886C7.6112 18.8103 7.3542 19 6.83031 19C6.31631 19 6 18.706 6 18.2317C6 18.0705 6.02965 17.9282 6.10873 17.7195L10.7446 5.86314C10.9621 5.28455 11.3773 5 11.9901 5C12.6227 5 13.028 5.28455 13.2554 5.87263L17.8913 17.71C17.9703 17.9187 18 18.061 18 18.2222ZM9.55848 13.4986H14.4119L12.0099 7.11518H11.9605L9.55848 13.4986Z" fill="currentColor"/>
</svg>
