<svg width="24" height="24" viewBox="0 0 24 24" fill="none" xmlns="http://www.w3.org/2000/svg">
<rect width="24" height="24" rx="12" fill="url(#paint0_linear_insta)"/>
<path d="M10.0027 12.0327C10.0027 10.9272 10.8984 10.0307 12.0036 10.0307C13.1088 10.0307 14.005 10.9272 14.005 12.0327C14.005 13.1382 13.1088 14.0346 12.0036 14.0346C10.8984 14.0346 10.0027 13.1382 10.0027 12.0327ZM8.92082 12.0327C8.92082 13.7358 10.301 15.1163 12.0036 15.1163C13.7062 15.1163 15.0864 13.7358 15.0864 12.0327C15.0864 10.3296 13.7062 8.94901 12.0036 8.94901C10.301 8.94901 8.92082 10.3296 8.92082 12.0327ZM14.488 8.82674C14.4879 8.96927 14.5301 9.10862 14.6092 9.22716C14.6884 9.3457 14.8008 9.43811 14.9325 9.4927C15.0641 9.5473 15.2089 9.56163 15.3487 9.53388C15.4884 9.50613 15.6168 9.43755 15.7176 9.3368C15.8184 9.23606 15.8871 9.10768 15.915 8.9679C15.9428 8.82812 15.9286 8.68322 15.8741 8.55152C15.8196 8.41982 15.7274 8.30723 15.6089 8.228C15.4905 8.14877 15.3512 8.10645 15.2087 8.10639H15.2084C15.0174 8.10648 14.8343 8.18239 14.6992 8.31746C14.5641 8.45252 14.4882 8.63569 14.488 8.82674ZM9.57815 16.9209C8.99282 16.8942 8.67468 16.7967 8.46325 16.7143C8.18296 16.6051 7.98297 16.4751 7.7727 16.2651C7.56243 16.055 7.43227 15.8552 7.32363 15.5748C7.24121 15.3634 7.14371 15.0451 7.1171 14.4596C7.088 13.8266 7.08219 13.6364 7.08219 12.0327C7.08219 10.429 7.08848 10.2394 7.1171 9.60585C7.14376 9.02035 7.24198 8.70265 7.32363 8.49064C7.43275 8.21026 7.56271 8.01021 7.7727 7.79988C7.98268 7.58955 8.18248 7.45935 8.46325 7.35068C8.67458 7.26824 8.99282 7.17071 9.57815 7.1441C10.211 7.11498 10.4011 7.10917 12.0036 7.10917C13.6061 7.10917 13.7964 7.11546 14.4298 7.1441C15.0151 7.17076 15.3327 7.26901 15.5447 7.35068C15.825 7.45935 16.025 7.58984 16.2352 7.79988C16.4455 8.00992 16.5752 8.21026 16.6843 8.49064C16.7667 8.70202 16.8642 9.02035 16.8908 9.60585C16.9199 10.2394 16.9257 10.429 16.9257 12.0327C16.9257 13.6364 16.9199 13.8261 16.8908 14.4596C16.8642 15.0451 16.7662 15.3633 16.6843 15.5748C16.5752 15.8552 16.4452 16.0552 16.2352 16.2651C16.0252 16.4749 15.825 16.6051 15.5447 16.7143C15.3333 16.7967 15.0151 16.8943 14.4298 16.9209C13.7969 16.95 13.6069 16.9558 12.0036 16.9558C10.4004 16.9558 10.2108 16.95 9.57815 16.9209ZM9.52844 6.06371C8.88932 6.09283 8.45259 6.1942 8.07119 6.34265C7.67621 6.49595 7.34183 6.70162 7.00769 7.03533C6.67356 7.36903 6.46847 7.70403 6.31521 8.09914C6.1668 8.48088 6.06546 8.91749 6.03636 9.5568C6.00677 10.1971 6 10.4018 6 12.0327C6 13.6635 6.00677 13.8682 6.03636 14.5086C6.06546 15.1479 6.1668 15.5845 6.31521 15.9662C6.46847 16.3611 6.6736 16.6965 7.00769 17.03C7.34178 17.3636 7.67621 17.569 8.07119 17.7227C8.45331 17.8712 8.88932 17.9725 9.52844 18.0016C10.1689 18.0308 10.3732 18.038 12.0036 18.038C13.634 18.038 13.8386 18.0312 14.4788 18.0016C15.1179 17.9725 15.5544 17.8712 15.936 17.7227C16.3308 17.569 16.6654 17.3637 16.9995 17.03C17.3336 16.6963 17.5383 16.3611 17.692 15.9662C17.8404 15.5845 17.9422 15.1479 17.9708 14.5086C17.9999 13.8678 18.0067 13.6635 18.0067 12.0327C18.0067 10.4018 17.9999 10.1971 17.9708 9.5568C17.9417 8.91745 17.8404 8.48064 17.692 8.09914C17.5383 7.70427 17.3331 7.36956 16.9995 7.03533C16.6659 6.70109 16.3308 6.49595 15.9365 6.34265C15.5544 6.1942 15.1179 6.09235 14.4792 6.06371C13.8391 6.0346 13.6345 6.02734 12.0041 6.02734C10.3737 6.02734 10.1689 6.03412 9.52844 6.06371Z" fill="white"/>
<defs>
<linearGradient id="paint0_linear_insta" x1="23.5387" y1="24" x2="-0.461279" y2="-6.46012e-07" gradientUnits="userSpaceOnUse">
<stop stop-color="#FBE18A"/>
<stop offset="0.21" stop-color="#FCBB45"/>
<stop offset="0.38" stop-color="#F75274"/>
<stop offset="0.52" stop-color="#D53692"/>
<stop offset="0.74" stop-color="#8F39CE"/>
<stop offset="1" stop-color="#5B4FE9"/>
</linearGradient>
</defs>
</svg>
