<svg width="20" height="20" viewBox="0 0 20 20" fill="none" xmlns="http://www.w3.org/2000/svg">
<path d="M3.125 3.75C2.95924 3.75 2.80027 3.81585 2.68306 3.93306C2.56585 4.05027 2.5 4.20924 2.5 4.375C2.5 4.54076 2.56585 4.69973 2.68306 4.81694C2.80027 4.93415 2.95924 5 3.125 5H16.875C17.0408 5 17.1997 4.93415 17.3169 4.81694C17.4342 4.69973 17.5 4.54076 17.5 4.375C17.5 4.20924 17.4342 4.05027 17.3169 3.93306C17.1997 3.81585 17.0408 3.75 16.875 3.75H3.125ZM5.55 15.5438L6.095 15H3.125C2.95924 15 2.80027 15.0658 2.68306 15.1831C2.56585 15.3003 2.5 15.4592 2.5 15.625C2.5 15.7908 2.56585 15.9497 2.68306 16.0669C2.80027 16.1842 2.95924 16.25 3.125 16.25H5.105C5.195 15.9925 5.34375 15.75 5.55 15.5438ZM8.71625 12.3812C8.46017 12.2849 8.22826 12.1337 8.03673 11.9383C7.84521 11.7429 7.69872 11.508 7.6075 11.25H3.125C2.95924 11.25 2.80027 11.3158 2.68306 11.4331C2.56585 11.5503 2.5 11.7092 2.5 11.875C2.5 12.0408 2.56585 12.1997 2.68306 12.3169C2.80027 12.4342 2.95924 12.5 3.125 12.5H8.5975L8.71625 12.3812ZM9.26 8.75L9.6 8.7075C9.73573 8.65471 9.84877 8.55619 9.91959 8.42893C9.99041 8.30167 10.0146 8.15368 9.98789 8.01051C9.96121 7.86734 9.88538 7.73798 9.77347 7.64477C9.66157 7.55156 9.52064 7.50036 9.375 7.5H3.125C2.95924 7.5 2.80027 7.56585 2.68306 7.68306C2.56585 7.80027 2.5 7.95924 2.5 8.125C2.5 8.29076 2.56585 8.44973 2.68306 8.56694C2.80027 8.68415 2.95924 8.75 3.125 8.75H9.26ZM13.125 6.25C13.2775 6.25008 13.4247 6.30591 13.5389 6.40698C13.6531 6.50806 13.7264 6.64739 13.745 6.79875L13.8575 7.71625C13.9258 8.26953 14.1771 8.7841 14.5714 9.17819C14.9657 9.57227 15.4804 9.82326 16.0337 9.89125L16.9512 10.0038C17.1032 10.0218 17.2432 10.095 17.3447 10.2094C17.4463 10.3237 17.5024 10.4714 17.5024 10.6244C17.5024 10.7774 17.4463 10.925 17.3447 11.0394C17.2432 11.1538 17.1032 11.2269 16.9512 11.245L16.0337 11.3575C15.4805 11.4258 14.9659 11.6771 14.5718 12.0714C14.1777 12.4657 13.9267 12.9804 13.8587 13.5337L13.7462 14.4512C13.7282 14.6032 13.655 14.7432 13.5406 14.8447C13.4263 14.9463 13.2786 15.0024 13.1256 15.0024C12.9726 15.0024 12.825 14.9463 12.7106 14.8447C12.5962 14.7432 12.5231 14.6032 12.505 14.4512L12.3925 13.5337C12.3242 12.9805 12.0729 12.4659 11.6786 12.0718C11.2843 11.6777 10.7696 11.4267 10.2163 11.3587L9.29875 11.2462C9.14684 11.2282 9.00684 11.155 8.90526 11.0406C8.80368 10.9263 8.74757 10.7786 8.74757 10.6256C8.74757 10.4726 8.80368 10.325 8.90526 10.2106C9.00684 10.0962 9.14684 10.0231 9.29875 10.005L10.2163 9.8925C10.7695 9.82419 11.2841 9.57291 11.6782 9.1786C12.0723 8.78429 12.3233 8.26957 12.3913 7.71625L12.5038 6.79875C12.5224 6.64718 12.5959 6.50767 12.7103 6.40657C12.8248 6.30547 12.9723 6.24978 13.125 6.25ZM13.125 9.3425C12.8088 9.8675 12.3675 10.3088 11.8425 10.625C12.3675 10.9412 12.8088 11.3825 13.125 11.9075C13.4412 11.3825 13.8825 10.9412 14.4075 10.625C13.8817 10.3086 13.4414 9.86828 13.125 9.3425ZM11.0675 12.6838C11.1847 12.801 11.2505 12.9599 11.2505 13.1256C11.2505 13.2914 11.1847 13.4503 11.0675 13.5675L7.3175 17.3125C7.25985 17.3722 7.19088 17.4198 7.11463 17.4526C7.03838 17.4853 6.95636 17.5026 6.87338 17.5033C6.79039 17.504 6.70809 17.4882 6.63128 17.4568C6.55447 17.4253 6.48469 17.3789 6.426 17.3202C6.36732 17.2616 6.32091 17.1918 6.28949 17.115C6.25806 17.0382 6.24225 16.9559 6.24297 16.8729C6.24369 16.7899 6.26093 16.7079 6.29369 16.6316C6.32644 16.5554 6.37406 16.4864 6.43375 16.4287L10.1838 12.6825C10.301 12.5653 10.4599 12.4995 10.6256 12.4995C10.7914 12.4995 10.9503 12.5653 11.0675 12.6825V12.6838Z" fill="#6834B7"/>
</svg>
