<svg width="24" height="24" viewBox="0 0 24 24" fill="none" xmlns="http://www.w3.org/2000/svg">
<path fill-rule="evenodd" clip-rule="evenodd" d="M4.30614 10.3501C5.2191 10.3501 5.9592 11.0902 5.9592 12.0032C5.9592 12.9161 5.2191 13.6562 4.30614 13.6562C3.39318 13.6562 2.65308 12.9161 2.65308 12.0032C2.65308 11.0902 3.39318 10.3501 4.30614 10.3501ZM11.6531 10.3501C12.566 10.3501 13.3061 11.0902 13.3061 12.0032C13.3061 12.9161 12.566 13.6562 11.6531 13.6562C10.7401 13.6562 10 12.9161 10 12.0032C10 11.0902 10.7401 10.3501 11.6531 10.3501ZM20.6531 12.0032C20.6531 11.0902 19.9129 10.3501 19 10.3501C18.0871 10.3501 17.347 11.0902 17.347 12.0032C17.347 12.9161 18.0871 13.6563 19 13.6563C19.9129 13.6563 20.6531 12.9161 20.6531 12.0032Z" fill="#6D36BF"/>
</svg>
